0
SECTION
2
HEADER
9
$INSUNITS
70
4
9
$ACADVER
1
AC1014
9
$HANDSEED
5
FFFF
0
ENDSEC
0
SECTION
2
TABLES
0
TABLE
2
VPORT
5
8
100
AcDbSymbolTable
0
ENDTAB
0
TABLE
2
LTYPE
5
5
100
AcDbSymbolTable
0
LTYPE
5
14
100
AcDbSymbolTableRecord
100
AcDbLinetypeTableRecord
2
BYBLOCK
70
0
0
LTYPE
5
15
100
AcDbSymbolTableRecord
100
AcDbLinetypeTableRecord
2
BYLAYER
70
0
0
ENDTAB
0
TABLE
2
LAYER
5
2
100
AcDbSymbolTable
70
2
0
LAYER
5
50
100
AcDbSymbolTableRecord
100
AcDbLayerTableRecord
2
0
70
0
6
CONTINUOUS
0
ENDTAB
0
TABLE
2
STYLE
5
3
100
AcDbSymbolTable
70
1
0
STYLE
5
11
100
AcDbSymbolTableRecord
100
AcDbTextStyleTableRecord
2
STANDARD
70
0
0
ENDTAB
0
TABLE
2
VIEW
5
6
100
AcDbSymbolTable
70
0
0
ENDTAB
0
TABLE
2
UCS
5
7
100
AcDbSymbolTable
70
0
0
ENDTAB
0
TABLE
2
APPID
5
9
100
AcDbSymbolTable
70
2
0
APPID
5
12
100
AcDbSymbolTableRecord
100
AcDbRegAppTableRecord
2
ACAD
70
0
0
ENDTAB
0
TABLE
2
DIMSTYLE
5
A
100
AcDbSymbolTable
70
1
0
ENDTAB
0
TABLE
2
BLOCK_RECORD
5
1
100
AcDbSymbolTable
70
1
0
BLOCK_RECORD
5
1F
100
AcDbSymbolTableRecord
100
AcDbBlockTableRecord
2
*MODEL_SPACE
0
BLOCK_RECORD
5
1B
100
AcDbSymbolTableRecord
100
AcDbBlockTableRecord
2
*PAPER_SPACE
0
ENDTAB
0
ENDSEC
0
SECTION
2
BLOCKS
0
BLOCK
5
20
100
AcDbEntity
100
AcDbBlockBegin
2
*MODEL_SPACE
0
ENDBLK
5
21
100
AcDbEntity
100
AcDbBlockEnd
0
BLOCK
5
1C
100
AcDbEntity
100
AcDbBlockBegin
2
*PAPER_SPACE
0
ENDBLK
5
1D
100
AcDbEntity
100
AcDbBlockEnd
0
ENDSEC
0
SECTION
2
ENTITIES
0
LWPOLYLINE
5
100
100
AcDbEntity
8
0
100
AcDbPolyline
90
41
70
1
43
0.0
10
250
20
153
10
250
20
142.5625
10
253
20
142.5625
10
253
20
123.4375
10
250
20
123.4375
10
250
20
113
10
278.9375
20
113
10
278.9375
20
116.00000000000001
10
298.0625
20
116.00000000000001
10
298.0625
20
113
10
317.1875
20
113
10
317.1875
20
116.00000000000001
10
336.3125
20
116.00000000000001
10
336.3125
20
113
10
355.4375
20
113
10
355.4375
20
116.00000000000001
10
374.5625
20
116.00000000000001
10
374.5625
20
113
10
393.6875
20
113
10
393.6875
20
116.00000000000001
10
412.8125
20
116.00000000000001
10
412.8125
20
113
10
420
20
113
10
420
20
153
10
412.8125
20
153
10
412.8125
20
150
10
393.6875
20
150
10
393.6875
20
153
10
374.5625
20
153
10
374.5625
20
150
10
355.4375
20
150
10
355.4375
20
153
10
336.3125
20
153
10
336.3125
20
150
10
317.1875
20
150
10
317.1875
20
153
10
298.0625
20
153
10
298.0625
20
150
10
278.9375
20
150
10
278.9375
20
153
10
259.8125
20
153
0
LWPOLYLINE
5
101
100
AcDbEntity
8
0
100
AcDbPolyline
90
28
70
1
43
0.0
10
358.37304690000002
20
134.25985030000001
10
358.37304690000002
20
133.75594410000002
10
357.28320310000004
20
133.75594410000002
10
357.28320310000004
20
129.97860030000001
10
356.63476559999998
20
129.97860030000001
10
356.63476559999998
20
133.75594410000002
10
355.86914059999998
20
133.75594410000002
10
355.86914059999998
20
134.04891280000001
10
356.63476559999998
20
134.28328780000001
10
356.63476556768359
20
134.52156909962846
42
-0.057139051060748652
10
356.69611952935617
20
135.11712253218511
42
-0.11609655848360338
10
356.9594667089325
20
135.68155837337824
42
-0.18247563422740035
10
357.66238018049165
20
136.07019186001443
42
-0.044804885461451643
10
358.01367189109942
20
136.09969410765126
42
-0.03552220420936044
10
358.30913538395856
20
136.07713012723033
42
-0.024799546129550366
10
358.61283475755505
20
136.01707994102378
42
-0.012210432555898392
10
358.81054689999996
20
135.96297530000001
10
358.64257809999998
20
135.44344410000002
42
0.020207713613692068
10
358.3976898279343
20
135.51238702544327
42
0.028383761090431798
10
358.1650194626954
20
135.55437685203455
42
0.02931569031563809
10
358.00195314572181
20
135.56453777828904
42
0.060873208586127249
10
357.79115292463689
20
135.54069597289441
42
0.1834000395174944
10
357.4589843837262
20
135.32039715563195
42
0.074801144471822845
10
357.35980952601574
20
135.12039632730713
42
0.043402569134038733
10
357.30744187357453
20
134.89687544433838
42
0.029616458261390852
10
357.2847178728552
20
134.6347395921303
42
0.0079663177142860336
10
357.28320310000004
20
134.53719410000002
10
357.28320310000004
20
134.25985030000001
0
LWPOLYLINE
5
102
100
AcDbEntity
8
0
100
AcDbPolyline
90
19
70
1
43
0.0
10
361.61914060000004
20
134.29110030000001
10
361.52929690000002
20
133.68953780000001
42
0.018287578469459283
10
361.32379149161977
20
133.72747500565541
42
0.02445355013113705
10
361.13013038691287
20
133.7464978190672
42
0.011442835978049451
10
361.0605468774985
20
133.74813143460344
42
0.21007029137606437
10
360.2304710924891
20
133.38959965865888
42
0.014036915590378302
10
360.17187495480499
20
133.32625665574767
42
0.15652713781998936
10
359.81465294643669
20
132.49480396125523
42
0.027921990407029817
10
359.80273440000008
20
132.27547530000001
10
359.80273440000008
20
129.97860030000001
10
359.15429690000002
20
129.97860030000001
10
359.15429690000002
20
134.25985030000001
10
359.68945310000004
20
134.25985030000001
10
359.76367190000008
20
133.46688160000002
10
359.79492184272311
20
133.46688163226955
42
-0.048861649316629084
10
360.03976821354593
20
133.81667028926404
42
-0.066349069358995275
10
360.3691405707047
20
134.11141288561569
42
-0.15284689274042962
10
361.10742182711761
20
134.33797535459297
42
-0.022413341123473776
10
361.37392826220997
20
134.32661989158584
42
-0.028532845122225745
0
LWPOLYLINE
5
103
100
AcDbEntity
8
0
100
AcDbPolyline
90
21
70
1
43
0.0
10
366.0557214987092
20
131.47156065629849
42
0.048952145547195416
10
366.11523428678134
20
132.12313157938291
42
0.0067632499195644435
10
366.11385607053563
20
132.22607713903821
42
0.055699839266091955
10
366.02703764881096
20
132.88518635230895
42
0.12087567658666874
10
365.58593760207827
20
133.74031916809901
42
0.14084702529556312
10
364.79788293898832
20
134.24859517521273
42
0.074518851253287902
10
364.15820309885919
20
134.3379752853424
42
0.045161706859062081
10
363.70583532996079
20
134.29915950496604
42
0.1709661340388024
10
362.7050780636431
20
133.75399099502002
42
0.0526391446732591
10
362.48505522290947
20
133.44889533832105
42
0.082032265671348803
10
362.24071264080408
20
132.7742616453865
42
0.048662281721181054
10
362.18164083520406
20
132.12313158061039
42
0.040683479784082273
10
362.22238324254101
20
131.59769398991588
42
0.07171114431666617
10
362.42382812618638
20
130.94344406897406
42
0.012174480223367076
10
362.47102368098797
20
130.85102162986493
42
0.13556562129793223
10
363.11132817983298
20
130.17000661186304
42
0.063051694593742463
10
363.52577245264371
20
129.98571959156604
42
0.073762471252964396
10
364.13085933767479
20
129.90047531398656
42
0.043892853010474402
10
364.57055666105532
20
129.93721859481468
42
0.17228961472004936
10
365.58789048102716
20
130.48836608036999
42
0.050713281682591781
10
365.80327465141323
20
130.78427661942379
42
0.083800490871281358
0
LWPOLYLINE
5
104
100
AcDbEntity
8
0
100
AcDbPolyline
90
20
70
1
43
0.0
10
362.85351554712429
20
132.12313154853209
42
0.035838969301419416
10
362.8847629567008
20
131.65404418891964
42
0.053868467395030546
10
362.99167752762276
20
131.2230163119134
42
0.073560614325661411
10
363.18164054172684
20
130.87313159015298
42
0.19623262173384273
10
363.8738114694616
20
130.46550020765361
42
0.042543238045210707
10
364.14648435296465
20
130.4434442472234
42
0.066758859563025741
10
364.54383908853453
20
130.49284464593728
42
0.16764362439890676
10
365.11328125245188
20
130.8711784576742
42
0.085862717669897809
10
365.33003609183697
20
131.29337237122641
42
0.049748917654128193
10
365.42166860424391
20
131.72661311454911
42
0.029090214593722172
10
365.44335918913106
20
132.12313161411365
42
0.035749728418821104
10
365.41271675206468
20
132.58418433199736
42
0.053829945799678078
10
365.30753380241038
20
133.00900307411686
42
0.076109064958500408
10
365.11328110621025
20
133.36336586950239
42
0.18733861426579299
10
364.45010742750645
20
133.75902328152887
42
0.047911712340961192
10
364.13867190041674
20
133.78719398775667
42
0.062914447241048041
10
363.75447080108614
20
133.74219310252215
42
0.17112801093875385
10
363.17773429334665
20
133.36922538695092
42
0.085169507839209735
10
362.96932434668417
20
132.96649482455365
42
0.048479969414737013
10
362.87896181031113
20
132.5549413200344
42
0.031590971130663593
0
LWPOLYLINE
5
105
100
AcDbEntity
8
0
100
AcDbPolyline
90
32
70
1
43
0.0
10
370.83007809999998
20
129.97860030000001
10
370.18164060000004
20
129.97860030000001
10
370.18164060000004
20
132.74813160000002
42
0.03936131308898129
10
370.1606398542441
20
133.03551187994589
42
0.061884649372580605
10
370.08481639862555
20
133.30752814345357
42
0.085903619552539667
10
369.94335924743234
20
133.5293815068182
42
0.12349131839598075
10
369.64350771297472
20
133.72071098339876
42
0.058037602682046295
10
369.3808965728453
20
133.77784485886215
42
0.026759140467566597
10
369.19726560962306
20
133.78719392050732
42
0.047064550983474202
10
368.83001321905004
20
133.75517645960741
42
0.078888762176690011
10
368.46803279188532
20
133.62955371049304
42
0.090342164066615896
10
368.21289059750825
20
133.42391290939784
42
0.088204161654669225
10
368.02864083578129
20
133.10176071834846
42
0.049899563553517053
10
367.93765850591228
20
132.74568643739232
42
0.031186752847298094
10
367.9027198490511
20
132.36551112173268
42
0.0084761990207622168
10
367.90039059999998
20
132.22469409999999
10
367.90039059999998
20
129.97860030000001
10
367.25195310000004
20
129.97860030000001
10
367.25195310000004
20
134.25985030000001
10
367.77929690000002
20
134.25985030000001
10
367.88476559999998
20
133.67391280000001
10
367.91601555839753
20
133.67391282634824
42
-0.13479781733770249
10
368.43031312489416
20
134.14186180637572
42
-0.0078542189354795528
10
368.47460939024313
20
134.16414724750067
42
-0.092867293026904982
10
369.09945386993161
20
134.33080322131809
42
-0.02074156161138312
10
369.27539060039464
20
134.33797528943924
42
-0.042766095001304391
10
369.71116584642323
20
134.30334377504249
42
-0.068411776396065577
10
370.13291240825396
20
134.17389262582583
42
-0.080106063024617771
10
370.43945312337212
20
133.96492848229633
42
-0.11488525067658679
10
370.7132530954234
20
133.53502115484287
42
-0.056227840853197146
10
370.80771710493786
20
133.13849803999952
42
-0.032511480022935718
10
370.83007809999998
20
132.77156909999999
0
LWPOLYLINE
5
106
100
AcDbEntity
8
0
100
AcDbPolyline
90
33
70
1
43
0.0
10
374.13085940000002
20
130.51375660000002
10
374.1308593712543
20
130.01766286079851
42
-0.031934199577107941
10
374.05521393165708
20
129.98764117384599
42
-0.021003644071236463
10
373.96403089332716
20
129.96198781087219
42
-0.014690464398280159
10
373.85903520209746
20
129.94026291742006
42
-0.004045716023518147
10
373.82031246841939
20
129.93367844898901
42
-0.016442021280168341
10
373.63706395482973
20
129.9098461627415
42
-0.020314177937358249
10
373.4731422953061
20
129.90062170321357
42
-0.0033042525419339072
10
373.45117183919353
20
129.90047533967029
42
-0.074753594137751442
10
372.95206781081782
20
129.96764626849566
42
-0.28436443798995126
10
372.25988299895971
20
130.73290966611984
42
-0.05894097194606527
10
372.20898439999996
20
131.20906909999999
10
372.20898439999996
20
133.75594410000002
10
371.59570309999998
20
133.75594410000002
10
371.59570309999998
20
134.06844410000002
10
372.20898439999996
20
134.33797530000001
10
372.48242189999996
20
135.25203780000001
10
372.85742190000002
20
135.25203780000001
10
372.85742190000002
20
134.25985030000001
10
374.09960940000008
20
134.25985030000001
10
374.09960940000008
20
133.75594410000002
10
372.85742190000002
20
133.75594410000002
10
372.85742190000002
20
131.23641280000001
42
0.044137343160946661
10
372.87625864927645
20
131.00710710441803
42
0.070976374622653382
10
372.94806180451275
20
130.78167865154137
42
0.066765192252367447
10
373.04101553421344
20
130.64266275837036
42
0.17972853367876437
10
373.41132733456459
20
130.4455381419817
42
0.03869881459390806
10
373.54492182413793
20
130.4356316429209
42
0.036766557753009028
10
373.85688776253454
20
130.45794765135884
42
0.0025853589299102185
10
373.87695305108696
20
130.46102244270281
42
0.0067700918530834769
10
373.97056576627648
20
130.47708202919719
42
0.0093462180831170947
10
374.05351958378151
20
130.49404351269172
42
0.013056291363068649
10
374.12216077327486
20
130.51126404321388
42
0.0023194627560967716
0
LWPOLYLINE
5
107
100
AcDbEntity
8
0
100
AcDbPolyline
90
48
70
1
43
0.0
10
323.00000347197056
20
3.0000000447034836
10
335.18750000000006
20
3.0000000000000004
10
335.18750000000006
20
6.0000000000000009
10
354.3125
20
6.0000000000000009
10
354.3125
20
3.0000000000000004
10
373.4375
20
3.0000000000000004
10
373.4375
20
6.0000000000000009
10
392.5625
20
6.0000000000000009
10
392.5625
20
3.0000000000000004
10
411.6875
20
3.0000000000000004
10
411.6875
20
6.0000000000000009
10
430.81250000000006
20
6.0000000000000009
10
430.81250000000006
20
3.0000000000000004
10
449.93750000000006
20
3.0000000000000004
10
449.93750000000006
20
6.0000000000000009
10
469.0625
20
6.0000000000000009
10
469.0625
20
3.0000000000000004
10
488.1875
20
3.0000000000000004
10
488.1875
20
6.0000000000000009
10
507.3125
20
6.0000000000000009
10
507.3125
20
3.0000000000000004
10
530
20
3.0000000000000004
10
530
20
13.4375
10
533
20
13.4375
10
533
20
32.5625
10
530
20
32.5625
10
530
20
43
10
507.3125
20
43
10
507.3125
20
40
10
488.1875
20
40
10
488.1875
20
43
10
469.0625
20
43
10
469.0625
20
40
10
449.93750000000006
20
40
10
449.93750000000006
20
43
10
430.81250000000006
20
43
10
430.81250000000006
20
40
10
411.6875
20
40
10
411.6875
20
43
10
392.5625
20
43
10
392.5625
20
40
10
373.4375
20
40
10
373.4375
20
43
10
354.3125
20
43
10
354.3125
20
40
10
335.18750000000006
20
40
10
335.18750000000006
20
43
10
323.00000347197056
20
43
0
LWPOLYLINE
5
108
100
AcDbEntity
8
0
100
AcDbPolyline
90
4
70
1
43
0.0
10
378.05273440000002
20
26.0567253
10
378.05273440000002
20
19.9786003
10
377.40429689999996
20
19.9786003
10
377.40429689999996
20
26.0567253
0
LWPOLYLINE
5
109
100
AcDbEntity
8
0
100
AcDbPolyline
90
29
70
1
43
0.0
10
382.81054689999996
20
22.412194100000001
10
382.81054689999996
20
22.002037800000004
10
379.86132810000009
20
22.002037800000004
42
0.042156956959695256
10
379.90691372251911
20
21.566323125730694
42
0.067414505649857917
10
380.04750551064308
20
21.141561857259617
42
0.071070414375538488
10
380.24218771643427
20
20.85750681524846
42
0.15425254201431438
10
380.86085463301708
20
20.50893859843567
42
0.056349877119410668
10
381.25976558838204
20
20.466881636462972
42
0.096335909753128834
10
382.54241937392635
20
20.720940534125383
42
0.0058293831252953336
10
382.62695310000004
20
20.755944100000004
10
382.62695312140272
20
20.177819050744731
42
-0.024369269268256787
10
382.27219193525616
20
20.04380685487321
42
-0.025712337677787508
10
381.9765624359444
20
19.964928512636316
42
-0.025115823499102522
10
381.70646480702345
20
19.92319757219726
42
-0.017720388074365739
10
381.42311899465085
20
19.90367051167836
42
-0.008840945425465695
10
381.23632807825737
20
19.900475312714455
42
-0.063247799140433339
10
380.60578770939827
20
19.9751404269091
42
-0.14343026398651135
10
379.73828123870919
20
20.478600350769909
42
-0.12706571521234647
10
379.28178148862651
20
21.316897461343434
42
-0.05737307948277013
10
379.19127897172336
20
21.967052842030249
42
-0.0079003450675480726
10
379.18945311386301
20
22.084069142153769
42
-0.049916085689356342
10
379.25245817133111
20
22.759288428052159
42
-0.086513681560794448
10
379.52813028244861
20
23.488688567482399
42
-0.038420801721049939
10
379.69921869386411
20
23.728600343681489
42
-0.21284098104168916
10
380.91029929729609
20
24.332619445158347
42
-0.017252665066097225
10
381.06835931640626
20
24.337975418350929
42
-0.071384517302365197
10
381.6246337808002
20
24.263542930468578
42
-0.14417692883951916
10
382.34179687209541
20
23.808678430056393
42
-0.12965633978558833
10
382.75261112945424
20
22.98017328321702
42
-0.054240473907582236
0
LWPOLYLINE
5
110
100
AcDbEntity
8
0
100
AcDbPolyline
90
11
70
1
43
0.0
10
379.87695310000004
20
22.529381600000001
10
382.11523440000002
20
22.529381600000001
42
0.04037352168055449
10
382.08853134354217
20
22.884644294295796
42
0.063541326259537942
10
381.99013509912288
20
23.227663956683532
42
0.070914000180558434
10
381.84179674170832
20
23.468834658709781
42
0.17876651525370102
10
381.30680946268086
20
23.773326904461271
42
0.046476943249646956
10
381.0605468643264
20
23.795006632887716
42
0.073289612752717739
10
380.69129941723054
20
23.744257856532407
42
0.13810291870477037
10
380.23828119358603
20
23.459069088444213
42
0.098434585884624767
10
379.98358349439621
20
23.029373948416236
42
0.053265844826169098
10
379.88965148492287
20
22.640111951707006
42
0.011375021140938349
0
LWPOLYLINE
5
111
100
AcDbEntity
8
0
100
AcDbPolyline
90
28
70
1
43
0.0
10
385.84570310000004
20
24.2598503
10
385.84570310000004
20
23.755944100000001
10
384.75585940000002
20
23.755944100000001
10
384.75585940000002
20
19.9786003
10
384.10742190000002
20
19.9786003
10
384.10742190000002
20
23.755944100000001
10
383.34179689999996
20
23.755944100000001
10
383.34179689999996
20
24.048912800000004
10
384.10742190000002
20
24.283287800000004
10
384.10742186768351
20
24.521569099628458
42
-0.057139051060748541
10
384.16877582935626
20
25.117122532185071
42
-0.11609655848360968
10
384.43212295090348
20
25.681558422729406
42
-0.1824756195090913
10
385.13503638049167
20
26.070191860014408
42
-0.044804885461460095
10
385.48632809110222
20
26.099694108171811
42
-0.035522216196829597
10
385.78179168395866
20
26.077130127230312
42
-0.0247995461295447
10
386.08549105064776
20
26.017079913123922
42
-0.012210426850408988
10
386.28320310000004
20
25.962975300000004
10
386.11523439999996
20
25.443444100000004
42
0.020207721166308083
10
385.87034602793432
20
25.512387025443278
42
0.028383749416041708
10
385.63767576269538
20
25.554376852034558
42
0.029315708127739742
10
385.47460934572189
20
25.564537778289026
42
0.060873179893021705
10
385.26380922463693
20
25.540695972894405
42
0.18340003951752346
10
384.93164068372619
20
25.320397155631934
42
0.074801163657732511
10
384.83246572601564
20
25.120396327307127
42
0.043402569134029713
10
384.78009807357461
20
24.896875444338363
42
0.029616456627342712
10
384.75737417285524
20
24.634739592130309
42
0.0079663179744448101
10
384.75585940000002
20
24.537194100000001
10
384.75585940000002
20
24.2598503
0
LWPOLYLINE
5
112
100
AcDbEntity
8
0
100
AcDbPolyline
90
33
70
1
43
0.0
10
388.59570310000009
20
20.513756600000001
10
388.59570307125438
20
20.017662860798502
42
-0.03193419957710416
10
388.52005763165715
20
19.987641173846001
42
-0.021003644071252679
10
388.42887459867711
20
19.961987788369434
42
-0.014690451068537927
10
388.32387900209761
20
19.940262917420068
42
-0.0040457160235283611
10
388.28515626841943
20
19.933678448988992
42
-0.016442021280168341
10
388.10190775389503
20
19.909846172364766
42
-0.020314190252422416
10
387.93798599532386
20
19.900621701886539
42
-0.0033042375040660868
10
387.91601563919363
20
19.90047533967029
42
-0.074753594137762155
10
387.41691161081775
20
19.967646268495752
42
-0.284364437989928
10
386.72472670390425
20
20.732909644440408
42
-0.058940974682954367
10
386.67382810000004
20
21.209069100000001
10
386.67382810000004
20
23.755944100000001
10
386.06054690000002
20
23.755944100000001
10
386.06054690000002
20
24.068444100000001
10
386.67382810000004
20
24.3379753
10
386.94726560000004
20
25.2520378
10
387.32226560000009
20
25.2520378
10
387.32226560000009
20
24.2598503
10
388.56445310000004
20
24.2598503
10
388.56445310000004
20
23.755944100000001
10
387.32226560000009
20
23.755944100000001
10
387.32226560000009
20
21.236412800000004
42
0.044137343040967794
10
387.34110244927649
20
21.007107104418019
42
0.070976369646438886
10
387.41290550451276
20
20.781678651541363
42
0.066765192252383421
10
387.50585923421352
20
20.642662758370349
42
0.17972853367874969
10
387.87617103456461
20
20.445538141981675
42
0.038698843151610901
10
388.00976562413791
20
20.435631642920868
42
0.036766557753009223
10
388.32173156253452
20
20.457947651358843
42
0.0025853589299182707
10
388.341796851087
20
20.461022442702784
42
0.0067700918530783517
10
388.43540956627646
20
20.477082029197167
42
0.0093462072290413471
10
388.51836328378158
20
20.494043512691707
42
0.013056291363067586
10
388.58700447327493
20
20.511264043213856
42
0.002319462821626084
0
LINE
5
113
100
AcDbEntity
8
0
100
AcDbLine
10
539
20
300
30
0
11
539
21
277.3125
31
0
0
LINE
5
114
100
AcDbEntity
8
0
100
AcDbLine
10
539
20
277.3125
30
0
11
536
21
277.3125
31
0
0
LINE
5
115
100
AcDbEntity
8
0
100
AcDbLine
10
536
20
277.3125
30
0
11
536
21
258.1875
31
0
0
LINE
5
116
100
AcDbEntity
8
0
100
AcDbLine
10
536
20
258.1875
30
0
11
539
21
258.1875
31
0
0
LINE
5
117
100
AcDbEntity
8
0
100
AcDbLine
10
539
20
258.1875
30
0
11
539
21
239.0625
31
0
0
LINE
5
118
100
AcDbEntity
8
0
100
AcDbLine
10
539
20
239.0625
30
0
11
536
21
239.0625
31
0
0
LINE
5
119
100
AcDbEntity
8
0
100
AcDbLine
10
536
20
239.0625
30
0
11
536
21
219.93750000000003
31
0
0
LINE
5
120
100
AcDbEntity
8
0
100
AcDbLine
10
536
20
219.93750000000003
30
0
11
539
21
219.93750000000003
31
0
0
LINE
5
121
100
AcDbEntity
8
0
100
AcDbLine
10
539
20
219.93750000000003
30
0
11
539
21
200.8125
31
0
0
LINE
5
122
100
AcDbEntity
8
0
100
AcDbLine
10
539
20
200.8125
30
0
11
536
21
200.8125
31
0
0
LINE
5
123
100
AcDbEntity
8
0
100
AcDbLine
10
536
20
200.8125
30
0
11
536
21
181.6875
31
0
0
LINE
5
124
100
AcDbEntity
8
0
100
AcDbLine
10
536
20
181.6875
30
0
11
539
21
181.6875
31
0
0
LINE
5
125
100
AcDbEntity
8
0
100
AcDbLine
10
539
20
181.6875
30
0
11
539
21
162.5625
31
0
0
LINE
5
126
100
AcDbEntity
8
0
100
AcDbLine
10
539
20
162.5625
30
0
11
536
21
162.5625
31
0
0
LINE
5
127
100
AcDbEntity
8
0
100
AcDbLine
10
536
20
162.5625
30
0
11
536
21
143.4375
31
0
0
LINE
5
128
100
AcDbEntity
8
0
100
AcDbLine
10
536
20
143.4375
30
0
11
539
21
143.4375
31
0
0
LINE
5
129
100
AcDbEntity
8
0
100
AcDbLine
10
539
20
143.4375
30
0
11
539
21
124.3125
31
0
0
LINE
5
130
100
AcDbEntity
8
0
100
AcDbLine
10
539
20
124.3125
30
0
11
536
21
124.3125
31
0
0
LINE
5
131
100
AcDbEntity
8
0
100
AcDbLine
10
536
20
124.3125
30
0
11
536
21
105.1875
31
0
0
LINE
5
132
100
AcDbEntity
8
0
100
AcDbLine
10
536
20
105.1875
30
0
11
539
21
105.1875
31
0
0
LINE
5
133
100
AcDbEntity
8
0
100
AcDbLine
10
539
20
105.1875
30
0
11
539
21
93.000000044703484
31
0
0
LINE
5
134
100
AcDbEntity
8
0
100
AcDbLine
10
596.0000079870224
20
6.0000000000000009
30
0
11
603.1875
21
6.0000000000000009
31
0
0
LINE
5
135
100
AcDbEntity
8
0
100
AcDbLine
10
603.1875
20
6.0000000000000009
30
0
11
603.1875
21
3.0000000000000004
31
0
0
LINE
5
136
100
AcDbEntity
8
0
100
AcDbLine
10
603.1875
20
3.0000000000000004
30
0
11
622.3125
21
3.0000000000000004
31
0
0
LINE
5
137
100
AcDbEntity
8
0
100
AcDbLine
10
622.3125
20
3.0000000000000004
30
0
11
622.3125
21
6.0000000000000009
31
0
0
LINE
5
138
100
AcDbEntity
8
0
100
AcDbLine
10
622.3125
20
6.0000000000000009
30
0
11
641.4375
21
6.0000000000000009
31
0
0
LINE
5
139
100
AcDbEntity
8
0
100
AcDbLine
10
641.4375
20
6.0000000000000009
30
0
11
641.4375
21
3.0000000000000004
31
0
0
LINE
5
140
100
AcDbEntity
8
0
100
AcDbLine
10
641.4375
20
3.0000000000000004
30
0
11
660.5625
21
3.0000000000000004
31
0
0
LINE
5
141
100
AcDbEntity
8
0
100
AcDbLine
10
660.5625
20
3.0000000000000004
30
0
11
660.5625
21
6.0000000000000009
31
0
0
LINE
5
142
100
AcDbEntity
8
0
100
AcDbLine
10
660.5625
20
6.0000000000000009
30
0
11
679.6875
21
6.0000000000000009
31
0
0
LINE
5
143
100
AcDbEntity
8
0
100
AcDbLine
10
679.6875
20
6.0000000000000009
30
0
11
679.6875
21
3.0000000000000004
31
0
0
LINE
5
144
100
AcDbEntity
8
0
100
AcDbLine
10
679.6875
20
3.0000000000000004
30
0
11
698.81250000000011
21
3.0000000000000004
31
0
0
LINE
5
145
100
AcDbEntity
8
0
100
AcDbLine
10
698.81250000000011
20
3.0000000000000004
30
0
11
698.81250000000011
21
6.0000000000000009
31
0
0
LINE
5
146
100
AcDbEntity
8
0
100
AcDbLine
10
698.81250000000011
20
6.0000000000000009
30
0
11
717.9375
21
6.0000000000000009
31
0
0
LINE
5
147
100
AcDbEntity
8
0
100
AcDbLine
10
717.9375
20
6.0000000000000009
30
0
11
717.9375
21
3.0000000000000004
31
0
0
LINE
5
148
100
AcDbEntity
8
0
100
AcDbLine
10
717.9375
20
3.0000000000000004
30
0
11
737.0625
21
3.0000000000000004
31
0
0
LINE
5
149
100
AcDbEntity
8
0
100
AcDbLine
10
737.0625
20
3.0000000000000004
30
0
11
737.0625
21
6.0000000000000009
31
0
0
LINE
5
150
100
AcDbEntity
8
0
100
AcDbLine
10
737.0625
20
6.0000000000000009
30
0
11
756.1875
21
6.0000000000000009
31
0
0
LINE
5
151
100
AcDbEntity
8
0
100
AcDbLine
10
756.1875
20
6.0000000000000009
30
0
11
763
21
6.0000000000000009
31
0
0
LINE
5
152
100
AcDbEntity
8
0
100
AcDbLine
10
763
20
6.0000000000000009
30
0
11
763
21
28.687500000000004
31
0
0
LINE
5
153
100
AcDbEntity
8
0
100
AcDbLine
10
763
20
28.687500000000004
30
0
11
766.00000000000011
21
28.687500000000004
31
0
0
LINE
5
154
100
AcDbEntity
8
0
100
AcDbLine
10
766.00000000000011
20
28.687500000000004
30
0
11
766.00000000000011
21
47.8125
31
0
0
LINE
5
155
100
AcDbEntity
8
0
100
AcDbLine
10
766.00000000000011
20
47.8125
30
0
11
763
21
47.8125
31
0
0
LINE
5
156
100
AcDbEntity
8
0
100
AcDbLine
10
763
20
47.8125
30
0
11
763
21
66.9375
31
0
0
LINE
5
157
100
AcDbEntity
8
0
100
AcDbLine
10
763
20
66.9375
30
0
11
766.00000000000011
21
66.9375
31
0
0
LINE
5
158
100
AcDbEntity
8
0
100
AcDbLine
10
766.00000000000011
20
66.9375
30
0
11
766.00000000000011
21
86.062500000000014
31
0
0
LINE
5
159
100
AcDbEntity
8
0
100
AcDbLine
10
766.00000000000011
20
86.062500000000014
30
0
11
763
21
86.062500000000014
31
0
0
LINE
5
160
100
AcDbEntity
8
0
100
AcDbLine
10
763
20
86.062500000000014
30
0
11
763
21
105.1875
31
0
0
LINE
5
161
100
AcDbEntity
8
0
100
AcDbLine
10
763
20
105.1875
30
0
11
766.00000000000011
21
105.1875
31
0
0
LINE
5
162
100
AcDbEntity
8
0
100
AcDbLine
10
766.00000000000011
20
105.1875
30
0
11
766.00000000000011
21
124.3125
31
0
0
LINE
5
163
100
AcDbEntity
8
0
100
AcDbLine
10
766.00000000000011
20
124.3125
30
0
11
763
21
124.3125
31
0
0
LINE
5
164
100
AcDbEntity
8
0
100
AcDbLine
10
763
20
124.3125
30
0
11
763
21
143.4375
31
0
0
LINE
5
165
100
AcDbEntity
8
0
100
AcDbLine
10
763
20
143.4375
30
0
11
766.00000000000011
21
143.4375
31
0
0
LINE
5
166
100
AcDbEntity
8
0
100
AcDbLine
10
766.00000000000011
20
143.4375
30
0
11
766.00000000000011
21
162.5625
31
0
0
LINE
5
167
100
AcDbEntity
8
0
100
AcDbLine
10
766.00000000000011
20
162.5625
30
0
11
763
21
162.5625
31
0
0
LINE
5
168
100
AcDbEntity
8
0
100
AcDbLine
10
763
20
162.5625
30
0
11
763
21
181.6875
31
0
0
LINE
5
169
100
AcDbEntity
8
0
100
AcDbLine
10
763
20
181.6875
30
0
11
766.00000000000011
21
181.6875
31
0
0
LINE
5
170
100
AcDbEntity
8
0
100
AcDbLine
10
766.00000000000011
20
181.6875
30
0
11
766.00000000000011
21
200.8125
31
0
0
LINE
5
171
100
AcDbEntity
8
0
100
AcDbLine
10
766.00000000000011
20
200.8125
30
0
11
763
21
200.8125
31
0
0
LINE
5
172
100
AcDbEntity
8
0
100
AcDbLine
10
763
20
200.8125
30
0
11
763
21
219.93750000000003
31
0
0
LINE
5
173
100
AcDbEntity
8
0
100
AcDbLine
10
763
20
219.93750000000003
30
0
11
766.00000000000011
21
219.93750000000003
31
0
0
LINE
5
174
100
AcDbEntity
8
0
100
AcDbLine
10
766.00000000000011
20
219.93750000000003
30
0
11
766.00000000000011
21
239.0625
31
0
0
LINE
5
175
100
AcDbEntity
8
0
100
AcDbLine
10
766.00000000000011
20
239.0625
30
0
11
763
21
239.0625
31
0
0
LINE
5
176
100
AcDbEntity
8
0
100
AcDbLine
10
763
20
239.0625
30
0
11
763
21
258.1875
31
0
0
LINE
5
177
100
AcDbEntity
8
0
100
AcDbLine
10
763
20
258.1875
30
0
11
766.00000000000011
21
258.1875
31
0
0
LINE
5
178
100
AcDbEntity
8
0
100
AcDbLine
10
766.00000000000011
20
258.1875
30
0
11
766.00000000000011
21
277.3125
31
0
0
LINE
5
179
100
AcDbEntity
8
0
100
AcDbLine
10
766.00000000000011
20
277.3125
30
0
11
763
21
277.3125
31
0
0
LINE
5
180
100
AcDbEntity
8
0
100
AcDbLine
10
763
20
277.3125
30
0
11
763
21
300
31
0
0
LINE
5
181
100
AcDbEntity
8
0
100
AcDbLine
10
763
20
300
30
0
11
737.0625
21
300
31
0
0
LINE
5
182
100
AcDbEntity
8
0
100
AcDbLine
10
737.0625
20
300
30
0
11
737.0625
21
303
31
0
0
LINE
5
183
100
AcDbEntity
8
0
100
AcDbLine
10
737.0625
20
303
30
0
11
717.9375
21
303
31
0
0
LINE
5
184
100
AcDbEntity
8
0
100
AcDbLine
10
717.9375
20
303
30
0
11
717.9375
21
300
31
0
0
LINE
5
185
100
AcDbEntity
8
0
100
AcDbLine
10
717.9375
20
300
30
0
11
698.81250000000011
21
300
31
0
0
LINE
5
186
100
AcDbEntity
8
0
100
AcDbLine
10
698.81250000000011
20
300
30
0
11
698.81250000000011
21
303
31
0
0
LINE
5
187
100
AcDbEntity
8
0
100
AcDbLine
10
698.81250000000011
20
303
30
0
11
679.6875
21
303
31
0
0
LINE
5
188
100
AcDbEntity
8
0
100
AcDbLine
10
679.6875
20
303
30
0
11
679.6875
21
300
31
0
0
LINE
5
189
100
AcDbEntity
8
0
100
AcDbLine
10
679.6875
20
300
30
0
11
660.5625
21
300
31
0
0
LINE
5
190
100
AcDbEntity
8
0
100
AcDbLine
10
660.5625
20
300
30
0
11
660.5625
21
303
31
0
0
LINE
5
191
100
AcDbEntity
8
0
100
AcDbLine
10
660.5625
20
303
30
0
11
641.4375
21
303
31
0
0
LINE
5
192
100
AcDbEntity
8
0
100
AcDbLine
10
641.4375
20
303
30
0
11
641.4375
21
300
31
0
0
LINE
5
193
100
AcDbEntity
8
0
100
AcDbLine
10
641.4375
20
300
30
0
11
622.3125
21
300
31
0
0
LINE
5
194
100
AcDbEntity
8
0
100
AcDbLine
10
622.3125
20
300
30
0
11
622.3125
21
303
31
0
0
LINE
5
195
100
AcDbEntity
8
0
100
AcDbLine
10
622.3125
20
303
30
0
11
603.1875
21
303
31
0
0
LINE
5
196
100
AcDbEntity
8
0
100
AcDbLine
10
603.1875
20
303
30
0
11
603.1875
21
300
31
0
0
LINE
5
197
100
AcDbEntity
8
0
100
AcDbLine
10
603.1875
20
300
30
0
11
584.0625
21
300
31
0
0
LINE
5
198
100
AcDbEntity
8
0
100
AcDbLine
10
584.0625
20
300
30
0
11
584.0625
21
303
31
0
0
LINE
5
199
100
AcDbEntity
8
0
100
AcDbLine
10
584.0625
20
303
30
0
11
564.9375
21
303
31
0
0
LINE
5
200
100
AcDbEntity
8
0
100
AcDbLine
10
564.9375
20
303
30
0
11
564.9375
21
300
31
0
0
LINE
5
201
100
AcDbEntity
8
0
100
AcDbLine
10
564.9375
20
300
30
0
11
545.8125
21
300
31
0
0
LINE
5
202
100
AcDbEntity
8
0
100
AcDbLine
10
545.8125
20
300
30
0
11
539
21
300
31
0
0
LWPOLYLINE
5
203
100
AcDbEntity
8
0
100
AcDbPolyline
90
33
70
1
43
0.0
10
631.09941910000009
20
146.44140630000004
10
631.09941910330451
20
143.588867193011
42
-0.03193320186729004
10
630.66445776566229
20
143.41624264983136
42
-0.021003010081370652
10
630.14015533729992
20
143.26873595528204
42
-0.014690065604184727
10
629.53643033654635
20
143.14381755921647
42
-0.0040493661542484885
10
629.3137745575516
20
143.10595700603361
42
-0.016442203891937342
10
628.26009561366106
20
142.96892120787294
42
-0.020314443152794889
10
627.31754590752325
20
142.9158809128545
42
-0.0033050228321973955
10
627.19121600402059
20
142.91503903792389
42
-0.074753591324202964
10
624.32136793847474
20
143.30127149545444
42
-0.28436446707250584
10
620.34130589216329
20
147.70153644062995
42
-0.058940986047080222
10
620.04863790000002
20
150.43945310000001
10
620.04863790000002
20
165.08398440000002
10
616.52227070000004
20
165.08398440000002
10
616.52227070000004
20
166.88085940000002
10
620.04863790000002
20
168.4306641
10
621.62090350000005
20
173.68652340000006
10
623.77715350000005
20
173.68652340000006
10
623.77715350000005
20
167.98144530000002
10
630.91973160000009
20
167.98144530000002
10
630.91973160000009
20
165.08398440000002
10
623.77715350000005
20
165.08398440000002
10
623.77715350000005
20
150.59667969999998
42
0.044137141540264213
10
623.88546473724955
20
149.27817165527486
42
0.07097648510892994
10
624.29833318101964
20
147.98195823887428
42
0.06676604263409118
10
624.83281750554409
20
147.18261705013765
42
0.17972837792377486
10
626.96211005545376
20
146.04915130275509
42
0.038698873907152362
10
627.73027849343543
20
145.99218749710676
42
0.036766497457755683
10
629.52408267770784
20
146.12050431236864
42
0.0025859888798812412
10
629.63945821143898
20
146.13818352549561
42
0.006769675177389676
10
630.17773109503833
20
146.23052804511201
42
0.0093463345448009088
10
630.65471540191243
20
146.32805531974691
42
0.013054837493471501
10
631.04940228164946
20
146.42707346888838
42
0.0023216559690424549
0
LWPOLYLINE
5
204
100
AcDbEntity
8
0
100
AcDbPolyline
90
21
70
1
43
0.0
10
656.92421225333646
20
151.94877980267398
42
0.048952199782055589
10
657.26641125174592
20
155.69531252571591
42
0.0067636661100766949
10
657.25848747110399
20
156.28724948266236
42
0.055699848710838225
10
656.75928066111783
20
160.07712725045209
42
0.12087566429668305
10
654.22295424207596
20
164.99414062193688
42
0.14084707705430843
10
649.69164029854949
20
167.91672729715373
42
0.074518821950273983
10
646.01348162028853
20
168.4306640339224
42
0.04516202672054917
10
643.41236691781728
20
168.20747283652287
42
0.17096606553498783
10
637.65801279976779
20
165.07275397510713
42
0.052638737174381146
10
636.39288112919496
20
163.31845414845583
42
0.082032198989577698
10
634.98791126137246
20
159.43931044786638
42
0.048662263416839283
10
634.64824709480797
20
155.69531247640887
42
0.040683428893831627
10
634.88251800041849
20
152.67404635760022
42
0.071711138322993487
10
636.04082530620747
20
148.91210937362857
42
0.012174616679942333
10
636.31219921629645
20
148.38068016480517
42
0.13556562314399104
10
639.99395032679956
20
144.46484363553364
42
0.063051703747939544
10
642.37700563760995
20
143.40519430583575
42
0.073762484501727635
10
645.85625504455288
20
142.91503931083798
42
0.043892804411937672
10
648.38451433534317
20
143.12631232959396
42
0.17228964120008902
10
654.23418474483174
20
146.29541016502458
42
0.050713088196119055
10
655.47264337786248
20
147.99689640109955
42
0.083800746220260874
0
LWPOLYLINE
5
205
100
AcDbEntity
8
0
100
AcDbPolyline
90
20
70
1
43
0.0
10
638.51152852530902
20
155.69531253906231
42
0.035838723330801729
10
638.69120112066923
20
152.99806026050777
42
0.053868174080633352
10
639.30595999598597
20
150.5196498490381
42
0.073560727729910652
10
640.39824727758241
20
148.50781247914884
42
0.19623276426059011
10
644.37822967500779
20
146.16393196022244
42
0.042543499823895034
10
645.94609885404293
20
146.03710932583505
42
0.066759223246144375
10
648.23088830465463
20
146.32116317308717
42
0.16764383130435304
10
651.50518084512782
20
148.4965821083627
42
0.085862639828449827
10
652.75152087738411
20
150.92419691723546
42
0.049748784096453377
10
653.27840792544396
20
153.41533131797479
42
0.029090220710844397
10
653.40313024905072
20
155.69531245103005
42
0.035749567550882932
10
653.22693488999994
20
158.34636593306811
42
0.053830014929032624
10
652.6221317145264
20
160.78907322025427
42
0.076109113087848762
10
651.50518083383349
20
162.82666014784016
42
0.18733846382112657
10
647.6919315774195
20
165.1016903464145
42
0.047911592079006519
10
645.90117690686907
20
165.2636718363201
42
0.062914273820339914
10
643.69202091191266
20
165.00491589216338
42
0.1711279005825701
10
640.37578632763325
20
162.86035159595212
42
0.085169413438502636
10
639.17742840180335
20
160.54465104449477
42
0.04848021881953829
10
638.6578443515732
20
158.17821817259971
42
0.031591252409750935
0
LWPOLYLINE
5
206
100
AcDbEntity
8
0
100
AcDbPolyline
90
26
70
1
43
0.0
10
667.53105979999998
20
146.53125
10
667.26152844165358
20
146.53124999262698
42
-0.018553959980158907
10
667.49315680023483
20
143.92367556938456
42
-0.012522400627821452
10
667.53105979999998
20
142.44335939999999
10
667.53105979999998
20
132.31347659999997
10
663.80254410000009
20
132.31347659999997
10
663.80254410000009
20
167.98144530000002
10
666.83477070000004
20
167.98144530000002
10
667.35137230000009
20
164.61230470000001
10
667.53105978337544
20
164.61230471167545
42
-0.054871774280775651
10
668.98235654558164
20
166.26068304547957
42
-0.0739232883437827
10
670.87773944288051
20
167.53222657799074
42
-0.075082979548301676
10
673.55432534852321
20
168.3146304121932
42
-0.035360250595392391
10
675.25762226446898
20
168.43066400692578
42
-0.071620222864941463
10
678.48633807305475
20
167.99902611463176
42
-0.15833701470632827
10
682.81572771516164
20
165.08398437005624
42
-0.094411004069253998
10
684.72616862881
20
161.3542404464977
42
-0.052548757765675816
10
685.38858626967271
20
157.81216965845368
42
-0.021826498841328867
10
685.4773488297393
20
155.69531251996528
42
-0.042269764068183446
10
685.18767807286918
20
152.0170305526901
42
-0.065521062772783661
10
684.12973382917949
20
148.48443846157167
42
-0.062158908493504639
10
682.77080583850989
20
146.27294923366199
42
-0.2095671516803834
10
676.49734218128162
20
142.97426967380727
42
-0.024551215566391744
10
675.25762228780866
20
142.91503908254924
42
-0.063541145384551856
10
672.41578728036984
20
143.2616043441617
42
-0.041761290683619515
10
670.86650903337295
20
143.80224616692476
42
-0.13276751175952894
0
LWPOLYLINE
5
207
100
AcDbEntity
8
0
100
AcDbPolyline
90
26
70
1
43
0.0
10
667.53105979999998
20
156.52636719999998
10
667.53105979999998
20
155.6953125
42
0.025885770248537845
10
667.65308694012583
20
153.14733139683565
42
0.037597231284290301
10
668.03727857343017
20
150.94573516718978
42
0.061507709123372507
10
668.77884188007351
20
149.01212527809918
42
0.039320201142871998
10
669.26055194692844
20
148.27197266134328
42
0.15675529919781164
10
672.00445623707378
20
146.42027158136784
42
0.059892918065779531
10
674.04026697118593
20
146.0610568706156
42
0.016029949059782413
10
674.80840355003716
20
146.0371092560917
42
0.099889710338752366
10
677.25110855948128
20
146.4957654856897
42
0.13606034499664704
10
679.66497506045869
20
148.42543401328385
42
0.0080891028646553325
10
679.80596205530537
20
148.62011723368565
42
0.081226957504994729
10
681.04197161039917
20
151.25427626153123
42
0.048821192704217059
10
681.53361670001698
20
153.9130884084062
42
0.023030381543229689
10
681.61406755790654
20
155.7402344013089
42
0.0355769714095849
10
681.43749477521442
20
158.40856746478946
42
0.053155965463072476
10
680.83538162041077
20
160.85984753319437
42
0.069921896502832356
10
679.80596206785935
20
162.80419919634011
42
0.22068090627486212
10
675.56367239180361
20
165.22028880768502
42
0.026390666247443531
10
674.71855979192401
20
165.26367192110882
42
0.046982754577606783
10
672.71158098938781
20
165.08913211552249
42
0.079162551887581686
10
670.73561796089552
20
164.40337531079473
42
0.098347726050349235
10
669.26055203937835
20
163.17480463866792
42
0.081811974765679862
10
668.26152816332967
20
161.35433914344912
42
0.047839884958696115
10
667.75155022757883
20
159.34373148079632
42
0.031591819177278171
10
667.54346938676554
20
157.09821943187268
42
0.0060260269047925476
0
LWPOLYLINE
5
208
100
AcDbEntity
8
0
100
AcDbPolyline
90
54
70
1
43
0.0
10
250
20
196
10
250
20
185.56250000000003
10
253
20
185.56250000000003
10
253
20
166.4375
10
250
20
166.4375
10
250
20
156
10
278.9375
20
156
10
278.9375
20
159.00000000000003
10
298.0625
20
159.00000000000003
10
298.0625
20
156
10
317.1875
20
156
10
317.1875
20
159.00000000000003
10
336.3125
20
159.00000000000003
10
336.3125
20
156
10
355.4375
20
156
10
355.4375
20
159.00000000000003
10
374.5625
20
159.00000000000003
10
374.5625
20
156
10
393.6875
20
156
10
393.6875
20
159.00000000000003
10
412.8125
20
159.00000000000003
10
412.8125
20
156
10
431.9375
20
156
10
431.9375
20
159.00000000000003
10
451.0625
20
159.00000000000003
10
451.0625
20
156
10
470.1875
20
156
10
480
20
156
10
480
20
166.4375
10
477
20
166.4375
10
477
20
185.56250000000003
10
480
20
185.56250000000003
10
480
20
196
10
451.0625
20
196
10
451.0625
20
193
10
431.9375
20
193
10
431.9375
20
196
10
412.8125
20
196
10
412.8125
20
193
10
393.6875
20
193
10
393.6875
20
196
10
374.5625
20
196
10
374.5625
20
193
10
355.4375
20
193
10
355.4375
20
196
10
336.3125
20
196
10
336.3125
20
193
10
317.1875
20
193
10
317.1875
20
196
10
298.0625
20
196
10
298.0625
20
193
10
278.9375
20
193
10
278.9375
20
196
10
259.8125
20
196
0
LWPOLYLINE
5
209
100
AcDbEntity
8
0
100
AcDbPolyline
90
25
70
1
43
0.0
10
357.35546880000004
20
173.55082540000001
10
357.30859379999998
20
173.55082540000001
10
357.171875
20
173.0000441
10
356.70703129999998
20
173.0000441
10
356.70703129999998
20
179.07816910000003
10
357.35546880000004
20
179.07816910000003
10
357.3554686738172
20
177.60160659989339
42
-0.0084478255303023289
10
357.34813689090493
20
177.14484427898248
42
-0.010481330751191981
10
357.32620060614022
20
176.73651588005316
42
-0.00078957382368773988
10
357.32421880000004
20
176.7109816
10
357.35546873358152
20
176.71098164631542
42
-0.22136230653091854
10
358.43157957961984
20
177.3359663192042
42
-0.03029190414060216
10
358.69921877341812
20
177.35160653415133
42
-0.071343355555362142
10
359.25698045172885
20
177.27719379548162
42
-0.15616627612920014
10
360.00976558541703
20
176.77543476790447
42
-0.096010103209277997
10
360.34481998014417
20
176.13013106723309
42
-0.050935607785449158
10
360.45803625361179
20
175.54581107598648
42
-0.024140248656481823
10
360.47656253206151
20
175.14457540986297
42
-0.04226983325521929
10
360.42618501821346
20
174.50487419724155
42
-0.065521064175949661
10
360.24219463586286
20
173.89051029888117
42
-0.062158800450207996
10
360.00585935038742
20
173.50590354792268
42
-0.20956713601125496
10
358.91482222115036
20
172.93222010731822
42
-0.024551646895478292
10
358.69921871808884
20
172.92191910169777
42
-0.063541350938614016
10
358.2049865888788
20
172.98219134093307
42
-0.041761302049364214
10
357.93554686923483
20
173.0762159524254
42
-0.1327674340594478
0
LWPOLYLINE
5
210
100
AcDbEntity
8
0
100
AcDbPolyline
90
25
70
1
43
0.0
10
358.6054687304578
20
176.80863792363459
42
0.048730180414076486
10
358.25256509716246
20
176.77681452802901
42
0.084074029256479596
10
357.89890234607361
20
176.6476824784462
42
0.097542904626288215
10
357.64843756780999
20
176.42777847268971
42
0.07834059014922605
10
357.48771964683101
20
176.12169334278516
42
0.045150549243522513
10
357.39967073659551
20
175.76688654215752
42
0.029587262277525637
10
357.35978532333291
20
175.35595140159717
42
0.010580397560338061
10
357.3554687732294
20
175.14457532675641
42
0.025885650303843672
10
357.37669098015988
20
174.70144824167414
42
0.037597127046620764
10
357.44350684967048
20
174.31856188589984
42
0.06150815790373617
10
357.57247434047906
20
173.98228191642835
42
0.039320484575974951
10
357.65624998301519
20
173.8535597089458
42
0.15675512686085458
10
358.13345067690904
20
173.53152467272733
42
0.059892791249317491
10
358.48750482672403
20
173.46905277540179
42
0.01602996582838025
10
358.62109374555871
20
173.46488782764126
42
0.072014999848665717
10
358.98825872186706
20
173.51404130092905
42
0.18007917102666762
10
359.51171885106601
20
173.90043473250552
42
0.074117992929440255
10
359.69589707574869
20
174.29882025314967
42
0.044621873851327404
10
359.78078338093621
20
174.71705925050361
42
0.029361114071266722
10
359.80468756765612
20
175.15238789404441
42
0.028550339810545541
10
359.78151311158604
20
175.58892271762835
42
0.043113482494276316
10
359.70267461332634
20
175.99068243111634
42
0.070966648592290904
10
359.5414172982226
20
176.35463978424767
42
0.012307896810200407
10
359.51171873463119
20
176.39848166310196
42
0.1955592324894451
10
358.90970556641065
20
176.77948533722537
42
0.051081326979968859
0
LWPOLYLINE
5
211
100
AcDbEntity
8
0
100
AcDbPolyline
90
40
70
1
43
0.0
10
364.72265630000004
20
173.0000441
10
364.2421875
20
173.0000441
10
364.11328130000004
20
173.60941910000003
10
364.08203125167859
20
173.60941913815222
42
-0.030389631129729013
10
363.8645444662356
20
173.36595241617516
42
-0.043680738038371698
10
363.63070810790646
20
173.1707756493912
42
-0.045164721950755694
10
363.44335934385754
20
173.06449727191432
42
-0.054304464968066936
10
363.13451382346523
20
172.96703177042178
42
-0.037019648303508471
10
362.81109070060631
20
172.92632464343657
42
-0.013942679991036318
10
362.64843748095598
20
172.921919050122
42
-0.051238701469174044
10
362.24349936400444
20
172.96063666369733
42
-0.090087816797022907
10
361.80595873961687
20
173.13190562127949
42
-0.04381782748285562
10
361.65039064356824
20
173.25004416140953
42
-0.15556474705679557
10
361.32889696842255
20
173.81214447860907
42
-0.057437070950062549
10
361.28906249924501
20
174.18363782310541
42
-0.30033000405525156
10
361.92725445658544
20
175.24256823220296
42
-0.068712784044724362
10
362.52009932162525
20
175.44923151135808
42
-0.040325177139973571
10
363.23149281572518
20
175.53768969666211
42
-0.0052068068094977644
10
363.36328129999998
20
175.54301290000001
10
364.08984379999998
20
175.56645040000001
10
364.08984379999998
20
175.83207540000001
42
0.036276000017002791
10
364.07172872208503
20
176.10136451260951
42
0.055807441915789423
10
364.00885437576574
20
176.34955588309197
42
0.092056652111492929
10
363.87304679620706
20
176.57621589938717
42
0.12415124156629251
10
363.60341630206347
20
176.75209458617417
42
0.058628917902778147
10
363.36177105011421
20
176.80663052963405
42
0.028477112933812016
10
363.17968748646251
20
176.81645050036303
42
0.058176450191643692
10
362.69382379737868
20
176.75586812084651
42
0.038457191893661778
10
362.22831225386756
20
176.60436879294144
42
0.016371672433185366
10
361.96875
20
176.48832540000001
10
361.76953126645049
20
176.98441916221722
42
-0.052312004194147117
10
362.34657094400978
20
177.22162080032194
42
-0.0088700918595842285
10
362.46289061839661
20
177.25395047259997
42
-0.063706206340315485
10
363.21874997743691
20
177.35160666723843
42
-0.038227860689830861
10
363.63586337540562
20
177.3220473881112
42
-0.059069726233699237
10
364.02134687141086
20
177.21867352617687
42
-0.08935792137445156
10
364.35351567143971
20
177.01176292703616
42
-0.12030937670940889
10
364.61847495437331
20
176.60303712942004
42
-0.058288454820838595
10
364.70546250705632
20
176.22654522814332
42
-0.029922422231402686
10
364.72265630000004
20
175.9219191
0
LWPOLYLINE
5
212
100
AcDbEntity
8
0
100
AcDbPolyline
90
20
70
1
43
0.0
10
364.07421880000004
20
174.7187941
10
364.07421880000004
20
175.10551290000001
10
363.42578129999998
20
175.07816910000003
42
0.020036306500029615
10
363.04534764623838
20
175.05055126990379
42
0.028984149940028028
10
362.71523803622529
20
174.99427321965314
42
0.045601200092631758
10
362.43504788450855
20
174.90311809722303
42
0.03532175608278653
10
362.3105469662238
20
174.83793464024836
42
0.22831713664070294
10
361.98076631409117
20
174.33597401403645
42
0.039262511965533035
10
361.96875011256691
20
174.1758253769944
42
0.057888168631773915
10
361.99167094652381
20
173.96319703546027
42
0.13046096003422686
10
362.13334003123975
20
173.68744689452177
42
0.029130583732165257
10
362.18164068505428
20
173.64066919143116
42
0.10726099240997027
10
362.4460676039995
20
173.50023691547
42
0.054655627397032482
10
362.67609699832587
20
173.46048943055732
42
0.017370206358666162
10
362.77734373012254
20
173.45707544348198
42
0.054429931111937495
10
363.16290851500747
20
173.49630964848845
42
0.10840217507757542
10
363.62978330660809
20
173.70501313813838
42
0.029976496110828487
10
363.72851555576221
20
173.7891066671335
42
0.14605275775070364
10
364.03149122253978
20
174.33139727671153
42
0.058380662215382753
10
364.07420808686771
20
174.71223605849241
42
0.0007938914403497441
0
LWPOLYLINE
5
213
100
AcDbEntity
8
0
100
AcDbPolyline
90
36
70
1
43
0.0
10
368.9140625
20
177.13676290000001
10
368.71484379999998
20
176.5859816
42
0.02860365340778755
10
368.40191447332671
20
176.69004120574635
42
0.011648316640980819
10
368.24609373241339
20
176.72855961498129
42
0.01935217385401012
10
368.04228874209741
20
176.76626938422453
42
0.02538589397218767
10
367.85455652583994
20
176.78401731964607
42
0.010035612685617567
10
367.79687504607466
20
176.78520036138832
42
0.10443076247126568
10
367.21275701370462
20
176.67543097774413
42
0.20907812713314153
10
366.63010898756556
20
176.02731358185514
42
0.06552153600303047
10
366.50848481201427
20
175.47231903794471
42
0.024543880829484402
10
366.49218749708996
20
175.12113788463017
42
0.036538522746648365
10
366.52327728067428
20
174.66383198792298
42
0.054407765912082053
10
366.62929351297134
20
174.24362778577427
42
0.070895760023538604
10
366.81054683672517
20
173.91020040771656
42
0.19592378623292511
10
367.47778180430288
20
173.51149953568137
42
0.044243838029771256
10
367.75390628052486
20
173.48832521920855
42
0.070028921212143214
10
368.50267019944658
20
173.59725802724952
42
0.027580509136300776
10
368.8515625
20
173.71879410000003
10
368.85156253070602
20
173.14457533959384
42
-0.065153542112420582
10
368.40032848866139
20
172.98487420353121
42
-0.04186767952849528
10
367.94936728677447
20
172.92636084518421
42
-0.012649282843553135
10
367.7695312156294
20
172.92191904963596
42
-0.061445544018608259
10
367.17999074060521
20
172.98954035023786
42
-0.15393451928326934
10
366.33007813532743
20
173.49418475718113
42
-0.11004018877003661
10
365.9399133462386
20
174.2105176802647
42
-0.055744947855117376
10
365.82977312893888
20
174.83690100275609
42
-0.017640850819623334
10
365.82031245420501
20
175.11332540517046
42
-0.045720410054708713
10
365.87570682780438
20
175.76392447919932
42
-0.074390071659497958
10
366.0916338224157
20
176.41288592585033
42
-0.061295862603198949
10
366.33789062654904
20
176.77348167523834
42
-0.16206344408192505
10
367.25727078574749
20
177.30219867610708
42
-0.054987703985046134
10
367.81250001459523
20
177.35941917246481
42
-0.053183328662334169
10
368.42968749716925
20
177.29301286033419
42
-0.014304661576661257
10
368.60958858319515
20
177.24922018210421
42
-0.020266470254102172
10
368.77274651431253
20
177.1975153609782
42
-0.029167314916814596
10
368.91015169633539
20
177.13875060056216
42
-0.001131338550846857
0
LWPOLYLINE
5
214
100
AcDbEntity
8
0
100
AcDbPolyline
90
22
70
1
43
0.0
10
370.4765625
20
175.19145040000001
10
370.50781257424694
20
175.1914503474448
42
-0.010402887287892158
10
370.60278316926656
20
175.31986836531243
42
-0.0083052362518980967
10
370.73588936869828
20
175.48651726825156
42
-0.0051942144611864492
10
370.86805448058101
20
175.64332977787998
42
-0.0041276109785038278
10
371.01953129999998
20
175.81645040000001
10
372.40234380000004
20
177.28129410000003
10
373.171875
20
177.28129410000003
10
371.4375
20
175.45707540000001
10
373.29296880000004
20
173.0000441
10
372.5078125
20
173.0000441
10
370.99609380000004
20
175.0234816
10
370.5078125
20
174.6016066
10
370.5078125
20
173.0000441
10
369.8671875
20
173.0000441
10
369.8671875
20
179.07816910000003
10
370.5078125
20
179.07816910000003
10
370.50781244801101
20
175.85551290009718
42
-0.0070641029100976457
10
370.50585933649427
20
175.73344253684883
42
-0.0036054525096755052
10
370.5018309792016
20
175.62266374634331
42
-0.003746364261524868
10
370.49206110741892
20
175.43231612681484
42
-0.0026672072948064089
10
370.47768529449519
20
175.20765972072331
42
-0.00015510657117053116
0
LWPOLYLINE
5
215
100
AcDbEntity
8
0
100
AcDbPolyline
90
68
70
1
43
0.0
10
236
20
86
10
236
20
75.5625
10
233
20
75.5625
10
233
20
56.437500000000007
10
236
20
56.437500000000007
10
236
20
46.000000000000007
10
258.6875
20
46.000000000000007
10
258.6875
20
49
10
277.8125
20
49
10
277.8125
20
46.000000000000007
10
296.9375
20
46.000000000000007
10
296.9375
20
49
10
316.0625
20
49
10
316.0625
20
46.000000000000007
10
335.18750000000006
20
46.000000000000007
10
335.18750000000006
20
49
10
354.3125
20
49
10
354.3125
20
46.000000000000007
10
373.4375
20
46.000000000000007
10
373.4375
20
49
10
392.5625
20
49
10
392.5625
20
46.000000000000007
10
411.6875
20
46.000000000000007
10
411.6875
20
49
10
430.81250000000006
20
49
10
430.81250000000006
20
46.000000000000007
10
449.93750000000006
20
46.000000000000007
10
449.93750000000006
20
49
10
469.0625
20
49
10
469.0625
20
46.000000000000007
10
488.1875
20
46.000000000000007
10
488.1875
20
49
10
507.3125
20
49
10
507.3125
20
46.000000000000007
10
530
20
46.000000000000007
10
530
20
56.437500000000007
10
533
20
56.437500000000007
10
533
20
75.5625
10
530
20
75.5625
10
530
20
86
10
507.3125
20
86
10
507.3125
20
83
10
488.1875
20
83
10
488.1875
20
86
10
469.0625
20
86
10
469.0625
20
83
10
449.93750000000006
20
83
10
449.93750000000006
20
86
10
430.81250000000006
20
86
10
430.81250000000006
20
83
10
411.6875
20
83
10
411.6875
20
86
10
392.5625
20
86
10
392.5625
20
83
10
373.4375
20
83
10
373.4375
20
86
10
354.3125
20
86
10
354.3125
20
83
10
335.18750000000006
20
83
10
335.18750000000006
20
86
10
316.0625
20
86
10
316.0625
20
83
10
296.9375
20
83
10
296.9375
20
86
10
277.8125
20
86
10
277.8125
20
83
10
258.6875
20
83
10
258.6875
20
86
0
LWPOLYLINE
5
216
100
AcDbEntity
8
0
100
AcDbPolyline
90
19
70
1
43
0.0
10
377.18945310000004
20
68.234398599999992
10
377.09960939999996
20
67.632836099999992
42
0.018287578469453964
10
376.89410399161977
20
67.670773305655402
42
0.024453548292863028
10
376.70044288691287
20
67.689796019067188
42
0.011442835978061585
10
376.63085937749838
20
67.691429634603438
42
0.21007029137604633
10
375.8007835924891
20
67.332897858658882
42
0.014036915590377314
10
375.74218745480499
20
67.269554855747685
42
0.15652712477425115
10
375.38496544643669
20
66.438102261255224
42
0.027921990330050783
10
375.37304689999996
20
66.218773600000006
10
375.37304689999996
20
63.921898600000013
10
374.72460939999996
20
63.921898600000013
10
374.72460939999996
20
68.203148599999992
10
375.25976560000004
20
68.203148599999992
10
375.33398439999996
20
67.410179799999995
10
375.36523434272311
20
67.41017983226952
42
-0.048861649316634649
10
375.61008071354598
20
67.759968489263983
42
-0.066349069359010998
10
375.93945301415056
20
68.054711168085774
42
-0.15284689262976048
10
376.67773432711772
20
68.281273654592965
42
-0.022413341123473776
10
376.94424076206838
20
68.269918189957139
42
-0.028532843822538297
0
LWPOLYLINE
5
217
100
AcDbEntity
8
0
100
AcDbPolyline
90
4
70
1
43
0.0
10
378.63867190000002
20
68.203148599999992
10
378.63867190000002
20
63.921898600000013
10
377.99023439999996
20
63.921898600000013
10
377.99023439999996
20
68.203148599999992
0
LWPOLYLINE
5
218
100
AcDbEntity
8
0
100
AcDbPolyline
90
18
70
1
43
0.0
10
377.94468585656779
20
69.4820729661201
42
0.041514945342556134
10
377.93554684490903
20
69.363304866311154
42
0.023951446185843377
10
377.93890365115851
20
69.290077599771351
42
0.057710102753322202
10
377.96331949745411
20
69.171114451013437
42
0.11880442114902766
10
378.04492183164933
20
69.037132929453435
42
0.10850359815345276
10
378.17656704665359
20
68.95331445086606
42
0.087919496142566445
10
378.31835940202905
20
68.929711154662428
42
0.19937491816518194
10
378.58789062603478
20
69.037132906967344
42
0.081565378284860879
10
378.64969987037802
20
69.118982776537038
42
0.076237080959002751
10
378.69065523144394
20
69.240339210096181
42
0.046085811837612969
10
378.70117179582024
20
69.363304834149375
42
0.023713186776092115
10
378.69798047935285
20
69.433546337507266
42
0.057866728036031441
10
378.67416344203747
20
69.549919534865523
42
0.12598352148719208
10
378.58789058939465
20
69.687523525676468
42
0.19672288454693895
10
378.31835933262585
20
69.792992330334215
42
0.01655769824722856
10
378.28559825531221
20
69.791924626457813
42
0.18004747150564751
10
378.04492187437063
20
69.689476741221029
42
0.096858635308381139
10
377.97790489727151
20
69.594289052277546
42
0.065909799188294788
0
LWPOLYLINE
5
219
100
AcDbEntity
8
0
100
AcDbPolyline
90
66
70
1
43
0.0
10
382.03710940000002
20
68.203148599999992
10
383.51757810000004
20
68.203148599999992
10
383.51757810000004
20
67.792992299999995
10
382.72460938371887
20
67.699242287115339
42
-0.038849642150301678
10
382.81582635382642
20
67.563538310294817
42
-0.027748629021447497
10
382.89214412365226
20
67.409550315210581
42
-0.009157269352620085
10
382.91992189967578
20
67.341820445508262
42
-0.06176110112980604
10
382.99377442941676
20
67.04381629292628
42
-0.0313052366565926
10
383.00585933297549
20
66.843773546625656
42
-0.078836962305192271
10
382.93764541828574
20
66.382922100218963
42
-0.13823953677919043
10
382.57617185655317
20
65.839867334162221
42
-0.112568962228054
10
382.01040453767882
20
65.541863103865367
42
-0.055577969403066828
10
381.54201888744814
20
65.468551702822211
42
-0.012924974178764039
10
381.39648438939707
20
65.464867327402757
42
-0.028995206508104769
10
381.15535734143248
20
65.478325589113709
42
-0.016991790337696794
10
381.03710934360157
20
65.496117389378924
42
0.048103756942325673
10
380.85112997158944
20
65.375794864844295
42
0.083321085188028957
10
380.69927878130187
20
65.209414173913743
42
0.14375616792508095
10
380.62304679261456
20
64.945336043973739
42
0.083384392523538756
10
380.6401252879873
20
64.835333603021525
42
0.17785674675664118
10
380.75882288160756
20
64.690824430604408
42
0.0070916398732049956
10
380.76757815295224
20
64.685570508764826
42
0.060166719472731688
10
380.86843418447069
20
64.644034459123731
42
0.035132620240984631
10
380.99212324790824
20
64.618167487040992
42
0.022486612186298275
10
381.13481028512956
20
64.604759833517335
42
0.013067112097562993
10
381.26367189999996
20
64.601586100000006
10
382.02148439968209
20
64.601586159523507
42
-0.038116665804145897
10
382.42458337932248
20
64.572975849580772
42
-0.058416234925961763
10
382.80565131965102
20
64.471250595224419
42
-0.070199797610504946
10
383.08984373516552
20
64.308617298995955
42
-0.1911136043838523
10
383.44239857439703
20
63.704304409214771
42
-0.043615235942278487
10
383.46289059237142
20
63.457054812006788
42
-0.088338725219476916
10
383.38269040215431
20
62.971367596752117
42
-0.16088591300819069
10
382.91463836109688
20
62.387771516987911
42
-0.0043037368912553836
10
382.8925780772222
20
62.373070498691909
42
-0.071127260903802558
10
382.39123535645155
20
62.145745049184384
42
-0.043667293556914309
10
381.84277495981809
20
62.034212586800159
42
-0.029952196583997212
10
381.22851557339976
20
62.000023606552205
42
-0.033638296865167679
10
380.7411880129531
20
62.030541219326395
42
-0.050203474754575352
10
380.29192539771606
20
62.134606186442703
42
-0.066666013971718549
10
379.93359374281044
20
62.312523557219009
42
-0.12065723230239983
10
379.60042516359783
20
62.674038177325158
42
-0.11189458622027174
10
379.48042049612707
20
63.122619871589691
42
-0.013283361409784837
10
379.47851560319918
20
63.195336087050023
42
-0.18810997679817751
10
379.72851565042703
20
63.871117309365715
42
-0.10747615127348376
10
380.11741947139478
20
64.154512167968051
42
-0.0516644998594913
10
380.4316405584803
20
64.257836090475735
42
-0.12681982245303206
10
380.17037202351469
20
64.469093992710228
42
-0.007465303878664304
10
380.15624998014732
20
64.48830487176599
42
-0.14572794789816718
10
380.04590023161029
20
64.813214078893765
42
-0.012889200496937663
10
380.04492179238463
20
64.851586116020684
42
-0.082046798895116027
10
380.08230588724587
20
65.090409906950967
42
-0.073605720102415964
10
380.16992181011835
20
65.261742292360509
42
-0.049879631674881929
10
380.29247586584205
20
65.399957641006765
42
-0.033366568667453127
10
380.44134645099342
20
65.520697410884836
42
-0.018083895311206934
10
380.56445323692827
20
65.601586040562978
42
-0.14192367298315253
10
380.07062475928188
20
65.996942268661897
42
-0.014906399964948476
10
380.02343747743879
20
66.066429862426389
42
-0.12852966750295519
10
379.81771854050248
20
66.712425943644703
42
-0.015903577731293073
10
379.81445312403628
20
66.81642986255126
42
-0.059692736493772332
10
379.86373872654929
20
67.259432961511038
42
-0.15393825736635167
10
380.23632812699191
20
67.90041426669714
42
-0.11092599115534858
10
380.76485629178313
20
68.191916733230158
42
-0.056380964436626345
10
381.22743363536813
20
68.274205325332559
42
-0.017842723274770531
10
381.43164057852027
20
68.281273654743245
42
-0.033171946589188803
10
381.76042076836677
20
68.260502607257138
42
-0.037369869702777683
0
LWPOLYLINE
5
220
100
AcDbEntity
8
0
100
AcDbPolyline
90
26
70
1
43
0.0
10
381.81445310000009
20
64.019554799999995
10
381.03710939999996
20
64.019554799999995
42
0.045310960188721383
10
380.76846503341807
20
63.996843851183876
42
0.07436895692982691
10
380.49536484036372
20
63.906436802032744
42
0.057974186162295646
10
380.34960919909571
20
63.808617421426902
42
0.16844979744915414
10
380.12520489912993
20
63.421220492772996
42
0.052949627231923847
10
380.10351562488222
20
63.203148576359226
42
0.095033299526770795
10
380.14644902407781
20
62.961589393900169
42
0.14997329761944475
10
380.3582656405473
20
62.700829618276224
42
0.015010662241488736
10
380.39648435530569
20
62.675804822881034
42
0.067207131470080131
10
380.65191649255758
20
62.566307767474029
42
0.040432220655981281
10
380.9193266922266
20
62.513664722376213
42
0.029395118746540459
10
381.23099359431882
20
62.496121496415391
42
0.00041284137619455733
10
381.23632807437536
20
62.49611740237895
42
0.02445432423638581
10
381.66203114829761
20
62.515429299113023
42
0.03516491903752806
10
382.03305236746314
20
62.576343605139648
42
0.055559705078758362
10
382.35672034169511
20
62.690942441998729
42
0.023548937781103011
10
382.44531255484043
20
62.740257899319253
42
0.076071224284972927
10
382.66477207526378
20
62.923906965946628
42
0.18562873308643271
10
382.83789051109926
20
63.402367336328695
42
0.049977418909702538
10
382.82182726742036
20
63.576574397898895
42
0.088698772810495638
10
382.75538720382735
20
63.751492096844665
42
0.11644863080825438
10
382.6230468856179
20
63.884789214692177
42
0.064937174524486732
10
382.47722414479915
20
63.948413014595005
42
0.035710308808746385
10
382.29451871889307
20
63.98891655034484
42
0.022511717494942542
10
382.07602152153692
20
64.011895198845309
42
0.015859840172153219
0
LWPOLYLINE
5
221
100
AcDbEntity
8
0
100
AcDbPolyline
90
18
70
1
43
0.0
10
380.45507801738898
20
66.832054835043721
42
0.052806562750714534
10
380.48112900741052
20
66.566717874335495
42
0.096335545562491992
10
380.59958483275034
20
66.278762917556719
42
0.06046079145189568
10
380.70898432769121
20
66.152367344097783
42
0.11602258256270789
10
381.04627517097038
20
65.9692191527745
42
0.056930180222105234
10
381.32814439438744
20
65.924162906837495
42
0.013164587845045782
10
381.41601557966823
20
65.921898767490447
42
0.066208037373754067
10
381.78587725509726
20
65.966011616048078
42
0.28534447335696517
10
382.32314574951494
20
66.496408952820133
42
0.066903444794655306
10
382.36523440957785
20
66.843773572961368
42
0.069324061235060713
10
382.31759521943508
20
67.225597697523028
42
0.28539461098455915
10
381.76015990855296
20
67.767481271194015
42
0.063761779122012155
10
381.40429687798297
20
67.808617393347959
42
0.051303113724873228
10
381.12708091860776
20
67.782121356778589
42
0.091499090503944891
10
380.82764667402535
20
67.664062444664083
42
0.054488498910118817
10
380.70117180427184
20
67.562523586611732
42
0.12020582320599126
10
380.51281630714578
20
67.24538777148301
42
0.057409895026208822
10
380.46071666116302
20
66.973232276896525
42
0.020715509930467193
0
LWPOLYLINE
5
222
100
AcDbEntity
8
0
100
AcDbPolyline
90
35
70
1
43
0.0
10
387.97460940000002
20
63.921898600000013
10
387.32617189999996
20
63.921898600000013
10
387.32617189999996
20
66.691429800000009
42
0.039361313010640789
10
387.30517105424411
20
66.978810079945887
42
0.061884649372578669
10
387.22934759862551
20
67.250826343453539
42
0.085903606951853201
10
387.08789054743238
20
67.47267970681817
42
0.12349136747565739
10
386.7880389129748
20
67.664009283398769
42
0.058037575252254725
10
386.52542787284528
20
67.72114305886214
42
0.026759154941757447
10
386.34179680962302
20
67.730492120507307
42
0.047016963503654856
10
385.97495922639644
20
67.698554751588446
42
0.078604385991008274
10
385.61499260458783
20
67.573934904506629
42
0.092835253977259169
10
385.35546871726922
20
67.363304800734625
42
0.086978819652647935
10
385.17237036302214
20
67.038849539639202
42
0.049671951187540184
10
385.08142207579169
20
66.678261442229342
42
0.03064226872745662
10
385.04720315470337
20
66.300030547617681
42
0.0083557085985231355
10
385.04492190000002
20
66.160179799999995
10
385.04492190000002
20
63.921898600000013
10
384.39648439999996
20
63.921898600000013
10
384.39648439999996
20
70.000023599999992
10
385.04492190000002
20
70.000023599999992
10
385.04492185579932
20
68.160179799947286
42
-0.0096035736894620471
10
385.04088589068766
20
67.936162705535168
42
-0.012704712244430816
10
385.02873410538092
20
67.74091684240156
42
-0.013049732154968735
10
385.01367189999996
20
67.609398599999992
10
385.05273439495903
20
67.609398603153252
42
-0.12340914399353718
10
385.50661310841946
20
68.04620775647075
42
-0.016375835979765881
10
385.59765622167708
20
68.095726659871389
42
-0.08622692316223951
10
386.14403297399696
20
68.257796519715157
42
-0.031003089621999907
10
386.40429687558117
20
68.273461073845837
42
-0.042207084630088702
10
386.8463066741171
20
68.238829455853093
42
-0.066779983306774718
10
387.26735406124413
20
68.112055190049674
42
-0.081656647472424695
10
387.5820311755345
20
67.900414191819692
42
-0.11634786718403302
10
387.86053077021421
20
67.463143908114617
42
-0.057543410016223241
10
387.95505100245055
20
67.055682541042529
42
-0.030464645555985874
10
387.97460940000002
20
66.714867299999995
0
LWPOLYLINE
5
223
100
AcDbEntity
8
0
100
AcDbPolyline
90
33
70
1
43
0.0
10
391.27539060000004
20
64.457054799999995
10
391.27539060989648
20
63.960961079068603
42
-0.031934216348966475
10
391.19974513165715
20
63.930939373846002
42
-0.021003644071252346
10
391.10856207617445
20
63.905286083019519
42
-0.014690447899453615
10
391.00356651938512
20
63.883561120503749
42
-0.0040457178322590437
10
390.96484376841943
20
63.876976648988986
42
-0.016442021280168341
10
390.78159525389503
20
63.853144372364774
42
-0.020314190252422416
10
390.61767349399679
20
63.843920001868931
42
-0.0033042373044798921
10
390.59570314073835
20
63.843773539694162
42
-0.07475359436708276
10
390.09659911081781
20
63.910944468495742
42
-0.28436443798994693
10
389.40441420390425
20
64.676207844440427
42
-0.058940974682951362
10
389.35351560000009
20
65.152367299999995
10
389.35351560000009
20
67.699242299999995
10
388.74023440000002
20
67.699242299999995
10
388.74023440000002
20
68.011742299999995
10
389.35351560000009
20
68.281273599999992
10
389.62695310000009
20
69.195336099999992
10
390.00195310000009
20
69.195336099999992
10
390.00195310000009
20
68.203148599999992
10
391.24414060000004
20
68.203148599999992
10
391.24414060000004
20
67.699242299999995
10
390.00195310000009
20
67.699242299999995
10
390.00195310000009
20
65.17971110000002
42
0.044137362224229537
10
390.02078994927643
20
64.950405304418013
42
0.070976340061982279
10
390.09259300451276
20
64.724976951541379
42
0.066765228096387477
10
390.18554673421357
20
64.58596095837035
42
0.17972850163870963
10
390.55585853456466
20
64.388836441981681
42
0.038698847507918376
10
390.68945312413791
20
64.378929842920883
42
0.036766557753009604
10
391.00141906253447
20
64.401245851358865
42
0.0025853589299236388
10
391.021484351087
20
64.404320642702785
42
0.0067700918530783517
10
391.11509706627652
20
64.420380229197164
42
0.009346207229033919
10
391.19805078378147
20
64.437341712691705
42
0.013056291363081413
10
391.26669197327493
20
64.454562243213857
42
0.0023194628216051424
0
LINE
5
224
100
AcDbEntity
8
0
100
AcDbLine
10
539
20
603
30
0
11
539
21
580.3125
31
0
0
LINE
5
225
100
AcDbEntity
8
0
100
AcDbLine
10
539
20
580.3125
30
0
11
536
21
580.3125
31
0
0
LINE
5
226
100
AcDbEntity
8
0
100
AcDbLine
10
536
20
580.3125
30
0
11
536
21
561.1875
31
0
0
LINE
5
227
100
AcDbEntity
8
0
100
AcDbLine
10
536
20
561.1875
30
0
11
539
21
561.1875
31
0
0
LINE
5
228
100
AcDbEntity
8
0
100
AcDbLine
10
539
20
561.1875
30
0
11
539
21
542.0625
31
0
0
LINE
5
229
100
AcDbEntity
8
0
100
AcDbLine
10
539
20
542.0625
30
0
11
536
21
542.0625
31
0
0
LINE
5
230
100
AcDbEntity
8
0
100
AcDbLine
10
536
20
542.0625
30
0
11
536
21
522.9375
31
0
0
LINE
5
231
100
AcDbEntity
8
0
100
AcDbLine
10
536
20
522.9375
30
0
11
539
21
522.9375
31
0
0
LINE
5
232
100
AcDbEntity
8
0
100
AcDbLine
10
539
20
522.9375
30
0
11
539
21
503.8125
31
0
0
LINE
5
233
100
AcDbEntity
8
0
100
AcDbLine
10
539
20
503.8125
30
0
11
536
21
503.8125
31
0
0
LINE
5
234
100
AcDbEntity
8
0
100
AcDbLine
10
536
20
503.8125
30
0
11
536
21
484.6875
31
0
0
LINE
5
235
100
AcDbEntity
8
0
100
AcDbLine
10
536
20
484.6875
30
0
11
539
21
484.6875
31
0
0
LINE
5
236
100
AcDbEntity
8
0
100
AcDbLine
10
539
20
484.6875
30
0
11
539
21
465.56250000000006
31
0
0
LINE
5
237
100
AcDbEntity
8
0
100
AcDbLine
10
539
20
465.56250000000006
30
0
11
536
21
465.56250000000006
31
0
0
LINE
5
238
100
AcDbEntity
8
0
100
AcDbLine
10
536
20
465.56250000000006
30
0
11
536
21
446.43750000000006
31
0
0
LINE
5
239
100
AcDbEntity
8
0
100
AcDbLine
10
536
20
446.43750000000006
30
0
11
539
21
446.43750000000006
31
0
0
LINE
5
240
100
AcDbEntity
8
0
100
AcDbLine
10
539
20
446.43750000000006
30
0
11
539
21
427.3125
31
0
0
LINE
5
241
100
AcDbEntity
8
0
100
AcDbLine
10
539
20
427.3125
30
0
11
536
21
427.3125
31
0
0
LINE
5
242
100
AcDbEntity
8
0
100
AcDbLine
10
536
20
427.3125
30
0
11
536
21
408.1875
31
0
0
LINE
5
243
100
AcDbEntity
8
0
100
AcDbLine
10
536
20
408.1875
30
0
11
539
21
408.1875
31
0
0
LINE
5
244
100
AcDbEntity
8
0
100
AcDbLine
10
539
20
408.1875
30
0
11
539
21
396.00000455975533
31
0
0
LINE
5
245
100
AcDbEntity
8
0
100
AcDbLine
10
596.0000079870224
20
309
30
0
11
603.1875
21
309
31
0
0
LINE
5
246
100
AcDbEntity
8
0
100
AcDbLine
10
603.1875
20
309
30
0
11
603.1875
21
306
31
0
0
LINE
5
247
100
AcDbEntity
8
0
100
AcDbLine
10
603.1875
20
306
30
0
11
622.3125
21
306
31
0
0
LINE
5
248
100
AcDbEntity
8
0
100
AcDbLine
10
622.3125
20
306
30
0
11
622.3125
21
309
31
0
0
LINE
5
249
100
AcDbEntity
8
0
100
AcDbLine
10
622.3125
20
309
30
0
11
641.4375
21
309
31
0
0
LINE
5
250
100
AcDbEntity
8
0
100
AcDbLine
10
641.4375
20
309
30
0
11
641.4375
21
306
31
0
0
LINE
5
251
100
AcDbEntity
8
0
100
AcDbLine
10
641.4375
20
306
30
0
11
660.5625
21
306
31
0
0
LINE
5
252
100
AcDbEntity
8
0
100
AcDbLine
10
660.5625
20
306
30
0
11
660.5625
21
309
31
0
0
LINE
5
253
100
AcDbEntity
8
0
100
AcDbLine
10
660.5625
20
309
30
0
11
679.6875
21
309
31
0
0
LINE
5
254
100
AcDbEntity
8
0
100
AcDbLine
10
679.6875
20
309
30
0
11
679.6875
21
306
31
0
0
LINE
5
255
100
AcDbEntity
8
0
100
AcDbLine
10
679.6875
20
306
30
0
11
698.81250000000011
21
306
31
0
0
LINE
5
256
100
AcDbEntity
8
0
100
AcDbLine
10
698.81250000000011
20
306
30
0
11
698.81250000000011
21
309
31
0
0
LINE
5
257
100
AcDbEntity
8
0
100
AcDbLine
10
698.81250000000011
20
309
30
0
11
717.9375
21
309
31
0
0
LINE
5
258
100
AcDbEntity
8
0
100
AcDbLine
10
717.9375
20
309
30
0
11
717.9375
21
306
31
0
0
LINE
5
259
100
AcDbEntity
8
0
100
AcDbLine
10
717.9375
20
306
30
0
11
737.0625
21
306
31
0
0
LINE
5
260
100
AcDbEntity
8
0
100
AcDbLine
10
737.0625
20
306
30
0
11
737.0625
21
309
31
0
0
LINE
5
261
100
AcDbEntity
8
0
100
AcDbLine
10
737.0625
20
309
30
0
11
756.1875
21
309
31
0
0
LINE
5
262
100
AcDbEntity
8
0
100
AcDbLine
10
756.1875
20
309
30
0
11
763
21
309
31
0
0
LINE
5
263
100
AcDbEntity
8
0
100
AcDbLine
10
763
20
309
30
0
11
763
21
331.6875
31
0
0
LINE
5
264
100
AcDbEntity
8
0
100
AcDbLine
10
763
20
331.6875
30
0
11
766.00000000000011
21
331.6875
31
0
0
LINE
5
265
100
AcDbEntity
8
0
100
AcDbLine
10
766.00000000000011
20
331.6875
30
0
11
766.00000000000011
21
350.81250000000006
31
0
0
LINE
5
266
100
AcDbEntity
8
0
100
AcDbLine
10
766.00000000000011
20
350.81250000000006
30
0
11
763
21
350.81250000000006
31
0
0
LINE
5
267
100
AcDbEntity
8
0
100
AcDbLine
10
763
20
350.81250000000006
30
0
11
763
21
369.9375
31
0
0
LINE
5
268
100
AcDbEntity
8
0
100
AcDbLine
10
763
20
369.9375
30
0
11
766.00000000000011
21
369.9375
31
0
0
LINE
5
269
100
AcDbEntity
8
0
100
AcDbLine
10
766.00000000000011
20
369.9375
30
0
11
766.00000000000011
21
389.0625
31
0
0
LINE
5
270
100
AcDbEntity
8
0
100
AcDbLine
10
766.00000000000011
20
389.0625
30
0
11
763
21
389.0625
31
0
0
LINE
5
271
100
AcDbEntity
8
0
100
AcDbLine
10
763
20
389.0625
30
0
11
763
21
408.1875
31
0
0
LINE
5
272
100
AcDbEntity
8
0
100
AcDbLine
10
763
20
408.1875
30
0
11
766.00000000000011
21
408.1875
31
0
0
LINE
5
273
100
AcDbEntity
8
0
100
AcDbLine
10
766.00000000000011
20
408.1875
30
0
11
766.00000000000011
21
427.3125
31
0
0
LINE
5
274
100
AcDbEntity
8
0
100
AcDbLine
10
766.00000000000011
20
427.3125
30
0
11
763
21
427.3125
31
0
0
LINE
5
275
100
AcDbEntity
8
0
100
AcDbLine
10
763
20
427.3125
30
0
11
763
21
446.43750000000006
31
0
0
LINE
5
276
100
AcDbEntity
8
0
100
AcDbLine
10
763
20
446.43750000000006
30
0
11
766.00000000000011
21
446.43750000000006
31
0
0
LINE
5
277
100
AcDbEntity
8
0
100
AcDbLine
10
766.00000000000011
20
446.43750000000006
30
0
11
766.00000000000011
21
465.56250000000006
31
0
0
LINE
5
278
100
AcDbEntity
8
0
100
AcDbLine
10
766.00000000000011
20
465.56250000000006
30
0
11
763
21
465.56250000000006
31
0
0
LINE
5
279
100
AcDbEntity
8
0
100
AcDbLine
10
763
20
465.56250000000006
30
0
11
763
21
484.6875
31
0
0
LINE
5
280
100
AcDbEntity
8
0
100
AcDbLine
10
763
20
484.6875
30
0
11
766.00000000000011
21
484.6875
31
0
0
LINE
5
281
100
AcDbEntity
8
0
100
AcDbLine
10
766.00000000000011
20
484.6875
30
0
11
766.00000000000011
21
503.8125
31
0
0
LINE
5
282
100
AcDbEntity
8
0
100
AcDbLine
10
766.00000000000011
20
503.8125
30
0
11
763
21
503.8125
31
0
0
LINE
5
283
100
AcDbEntity
8
0
100
AcDbLine
10
763
20
503.8125
30
0
11
763
21
522.9375
31
0
0
LINE
5
284
100
AcDbEntity
8
0
100
AcDbLine
10
763
20
522.9375
30
0
11
766.00000000000011
21
522.9375
31
0
0
LINE
5
285
100
AcDbEntity
8
0
100
AcDbLine
10
766.00000000000011
20
522.9375
30
0
11
766.00000000000011
21
542.0625
31
0
0
LINE
5
286
100
AcDbEntity
8
0
100
AcDbLine
10
766.00000000000011
20
542.0625
30
0
11
763
21
542.0625
31
0
0
LINE
5
287
100
AcDbEntity
8
0
100
AcDbLine
10
763
20
542.0625
30
0
11
763
21
561.1875
31
0
0
LINE
5
288
100
AcDbEntity
8
0
100
AcDbLine
10
763
20
561.1875
30
0
11
766.00000000000011
21
561.1875
31
0
0
LINE
5
289
100
AcDbEntity
8
0
100
AcDbLine
10
766.00000000000011
20
561.1875
30
0
11
766.00000000000011
21
580.3125
31
0
0
LINE
5
290
100
AcDbEntity
8
0
100
AcDbLine
10
766.00000000000011
20
580.3125
30
0
11
763
21
580.3125
31
0
0
LINE
5
291
100
AcDbEntity
8
0
100
AcDbLine
10
763
20
580.3125
30
0
11
763
21
603
31
0
0
LINE
5
292
100
AcDbEntity
8
0
100
AcDbLine
10
763
20
603
30
0
11
737.0625
21
603
31
0
0
LINE
5
293
100
AcDbEntity
8
0
100
AcDbLine
10
737.0625
20
603
30
0
11
737.0625
21
606
31
0
0
LINE
5
294
100
AcDbEntity
8
0
100
AcDbLine
10
737.0625
20
606
30
0
11
717.9375
21
606
31
0
0
LINE
5
295
100
AcDbEntity
8
0
100
AcDbLine
10
717.9375
20
606
30
0
11
717.9375
21
603
31
0
0
LINE
5
296
100
AcDbEntity
8
0
100
AcDbLine
10
717.9375
20
603
30
0
11
698.81250000000011
21
603
31
0
0
LINE
5
297
100
AcDbEntity
8
0
100
AcDbLine
10
698.81250000000011
20
603
30
0
11
698.81250000000011
21
606
31
0
0
LINE
5
298
100
AcDbEntity
8
0
100
AcDbLine
10
698.81250000000011
20
606
30
0
11
679.6875
21
606
31
0
0
LINE
5
299
100
AcDbEntity
8
0
100
AcDbLine
10
679.6875
20
606
30
0
11
679.6875
21
603
31
0
0
LINE
5
300
100
AcDbEntity
8
0
100
AcDbLine
10
679.6875
20
603
30
0
11
660.5625
21
603
31
0
0
LINE
5
301
100
AcDbEntity
8
0
100
AcDbLine
10
660.5625
20
603
30
0
11
660.5625
21
606
31
0
0
LINE
5
302
100
AcDbEntity
8
0
100
AcDbLine
10
660.5625
20
606
30
0
11
641.4375
21
606
31
0
0
LINE
5
303
100
AcDbEntity
8
0
100
AcDbLine
10
641.4375
20
606
30
0
11
641.4375
21
603
31
0
0
LINE
5
304
100
AcDbEntity
8
0
100
AcDbLine
10
641.4375
20
603
30
0
11
622.3125
21
603
31
0
0
LINE
5
305
100
AcDbEntity
8
0
100
AcDbLine
10
622.3125
20
603
30
0
11
622.3125
21
606
31
0
0
LINE
5
306
100
AcDbEntity
8
0
100
AcDbLine
10
622.3125
20
606
30
0
11
603.1875
21
606
31
0
0
LINE
5
307
100
AcDbEntity
8
0
100
AcDbLine
10
603.1875
20
606
30
0
11
603.1875
21
603
31
0
0
LINE
5
308
100
AcDbEntity
8
0
100
AcDbLine
10
603.1875
20
603
30
0
11
584.0625
21
603
31
0
0
LINE
5
309
100
AcDbEntity
8
0
100
AcDbLine
10
584.0625
20
603
30
0
11
584.0625
21
606
31
0
0
LINE
5
310
100
AcDbEntity
8
0
100
AcDbLine
10
584.0625
20
606
30
0
11
564.9375
21
606
31
0
0
LINE
5
311
100
AcDbEntity
8
0
100
AcDbLine
10
564.9375
20
606
30
0
11
564.9375
21
603
31
0
0
LINE
5
312
100
AcDbEntity
8
0
100
AcDbLine
10
564.9375
20
603
30
0
11
545.8125
21
603
31
0
0
LINE
5
313
100
AcDbEntity
8
0
100
AcDbLine
10
545.8125
20
603
30
0
11
539
21
603
31
0
0
LWPOLYLINE
5
314
100
AcDbEntity
8
0
100
AcDbPolyline
90
25
70
1
43
0.0
10
579.05750820000003
20
441.91757340000009
10
578.78797699999996
20
441.91757340000009
10
578.00184420000005
20
438.75058120000006
10
575.32899259999999
20
438.75058120000006
10
575.32899259999999
20
473.69979989999996
10
579.05750820000003
20
473.69979989999996
10
579.05750822589039
20
465.20956550002205
42
-0.0084480758430841348
10
579.01535008042538
20
462.58318227355176
42
-0.01048123071501258
10
578.8892154947755
20
460.23529373412646
42
-0.00079029579089262504
10
578.87782070000003
20
460.08847180000004
10
579.05750816706825
20
460.08847182296427
42
-0.22136226549906551
10
585.24514549537912
20
463.68213415944058
42
-0.030291655507766069
10
586.78407071936215
20
463.77206556942372
42
-0.071343383622767195
10
589.99120032818337
20
463.34419184527798
42
-0.15616628373940028
10
594.31971519225556
20
460.45907725180234
42
-0.096009823615316278
10
596.24627801879296
20
456.74858083769641
42
-0.050935567463569885
10
596.89727118398503
20
453.38874097184907
42
-0.024140077438611504
10
597.00379722939158
20
451.0816358788818
42
-0.042269764743157447
10
596.71412647286934
20
447.40335385269009
42
-0.065521062772781663
10
595.65618231203996
20
443.87076172388629
42
-0.06215890750208547
10
594.29725428975553
20
441.65927257257073
42
-0.20956714936939427
10
588.02379067390621
20
438.36059314973397
42
-0.024551217819100767
10
586.78407068371996
20
438.30136248252654
42
-0.063541145293803239
10
583.94223565619893
20
438.64792765039221
42
-0.041761290048356811
10
582.39295747072094
20
439.18856955016827
42
-0.13276751302061865
0
LWPOLYLINE
5
315
100
AcDbEntity
8
0
100
AcDbPolyline
90
25
70
1
43
0.0
10
586.24500818739716
20
460.64999522978542
42
0.048730111747232727
10
584.21581248488474
20
460.46700984198355
42
0.084073992125953748
10
582.18225136604121
20
459.72450185215104
42
0.097542555483362325
10
580.74207869204099
20
458.46005371774231
42
0.078340598853844381
10
579.81795026661428
20
456.70006440552402
42
0.045150776198683171
10
579.31166959029065
20
454.6599249672804
42
0.029587140729912823
10
579.08232858066742
20
452.29704812099169
42
0.010580856403131399
10
579.05750801238787
20
451.08163589421667
42
0.025885771193214592
10
579.17953544012585
20
448.53365469683575
42
0.037597229446050505
10
579.56372697343022
20
446.33205856718985
42
0.06150771272156827
10
580.30529038007353
20
444.39844857809919
42
0.039320199014649192
10
580.78700034692827
20
443.65829596134341
42
0.15675529547486247
10
583.53090463707383
20
441.80659498136782
42
0.059892920838434185
10
585.56671547118594
20
441.44738027061567
42
0.016029947109888788
10
586.33485195003732
20
441.42343255609177
42
0.072014964323847408
10
588.44605115434001
20
441.70606375484715
42
0.18007906344718366
10
591.4559456477632
20
443.92782727487861
42
0.074118317150224752
10
592.51497125881428
20
446.21854399627887
42
0.044621802803760505
10
593.00306720596996
20
448.62341843355773
42
0.029360794214729737
10
593.14051602723168
20
451.1265577051629
42
0.028550249003251853
10
593.00726383151198
20
453.63663330687712
42
0.043113490405200586
10
592.5539424913477
20
455.94675162318021
42
0.070966860858626704
10
591.62671263716095
20
458.03950642558812
42
0.012308546502415153
10
591.45594587035589
20
458.29159694883754
42
0.1955591526923523
10
587.99436993909762
20
460.48236880727734
42
0.051081370774527513
0
LWPOLYLINE
5
316
100
AcDbEntity
8
0
100
AcDbPolyline
90
21
70
1
43
0.0
10
624.42331695333655
20
447.335103102674
42
0.048952199782054867
10
624.76551595174612
20
451.08163582571586
42
0.0067636672521941736
10
624.75759217110419
20
451.67357288266237
42
0.055699848710838475
10
624.25838536111803
20
455.46345065045216
42
0.1208756626495716
10
621.72205894207605
20
460.38046392193689
42
0.14084707780871469
10
617.19074499854946
20
463.30305069715371
42
0.074518821950269404
10
613.51258632028873
20
463.81698743392235
42
0.045162026720548858
10
610.91147161781748
20
463.59379623652285
42
0.17096606553499022
10
605.15711749976776
20
460.4590773751072
42
0.052638739286882265
10
603.89198582919494
20
458.70477744845579
42
0.082032197034760765
10
602.48701596137266
20
454.8256338478663
42
0.048662263416837263
10
602.14735179480806
20
451.08163587640894
42
0.040683430219499148
10
602.38162270041835
20
448.06036965760023
42
0.071711138322994458
10
603.53993000620767
20
444.29843267362861
42
0.012174616679942903
10
603.81130391629642
20
443.7670034648051
42
0.13556562183273685
10
607.49305502679954
20
439.85116703553365
42
0.063051704444974599
10
609.87611033761004
20
438.79151760583574
42
0.073762484501724762
10
613.35535974455286
20
438.301362610838
42
0.043892804706510483
10
615.88361903534314
20
438.51263572959397
42
0.17228964120008899
10
621.73328944483171
20
441.68173356502456
42
0.05071308611433973
10
622.97174807786269
20
443.38321970109962
42
0.083800746220259265
0
LWPOLYLINE
5
317
100
AcDbEntity
8
0
100
AcDbPolyline
90
20
70
1
43
0.0
10
606.01063322530922
20
451.0816358390623
42
0.035838723330801535
10
606.19030582066944
20
448.38438356050779
42
0.053868171990401774
10
606.80506469598583
20
445.9059732490382
42
0.073560727729914871
10
607.8973519775825
20
443.89413587914879
42
0.19623276426058162
10
611.87733437500765
20
441.55025536022254
42
0.042543499823901113
10
613.44520355404302
20
441.42343272583503
42
0.066759223274070842
10
615.72999300465472
20
441.70748647308722
42
0.16764383130435193
10
619.00428554512791
20
443.88290540836266
42
0.085862639828452575
10
620.2506255773842
20
446.31052021723548
42
0.049748785958408995
10
620.77751262544393
20
448.80165471797477
42
0.029090220710845115
10
620.90223494905058
20
451.08163585103006
42
0.035749567550882155
10
620.7260395899998
20
453.73268933306809
42
0.053830014929034192
10
620.12123641452661
20
456.17539662025433
42
0.076109110010467246
10
619.00428553383347
20
458.2129834478402
42
0.18733846714767061
10
615.19103627741936
20
460.48801374641448
42
0.047911589460324013
10
613.40028170686901
20
460.64999523632019
42
0.062914276623134785
10
611.19112561191264
20
460.39123919216337
42
0.17112790058256819
10
607.87489102763311
20
458.24667489595214
42
0.085169410833142223
10
606.67653310180344
20
455.93097444449478
42
0.048480220723304455
10
606.15694905157306
20
453.56454147259973
42
0.031591252409750713
0
LWPOLYLINE
5
318
100
AcDbEntity
8
0
100
AcDbPolyline
90
33
70
1
43
0.0
10
642.62196129999995
20
441.8277296
10
642.62196130330437
20
438.97519049301093
42
-0.031933201867292267
10
642.18699996566215
20
438.80256594983132
42
-0.021003010081360768
10
641.66269753729989
20
438.65505925528203
42
-0.014690065604180952
10
641.0589725396303
20
438.53014084192819
42
-0.0040493643891840953
10
640.83631683900524
20
438.49228041936351
42
-0.016442205169140377
10
639.78263782328418
20
438.35524450880763
42
-0.020314443360844914
10
638.84008810619628
20
438.30220431283698
42
-0.0033050227974722379
10
638.71375820402068
20
438.3013624379239
42
-0.074753591324208654
10
635.8439101384746
20
438.68759489545437
42
-0.2843644670725044
10
631.86384806938656
20
443.08785983543515
42
-0.058940986100535005
10
631.57118009999999
20
445.82577649999996
10
631.57118009999999
20
460.47030769999998
10
628.04481290000001
20
460.47030769999998
10
628.04481290000001
20
462.26718269999998
10
631.57118009999999
20
463.81698739999996
10
633.14344570000003
20
469.07284680000004
10
635.29969570000003
20
469.07284680000004
10
635.29969570000003
20
463.3677687
10
642.44227379999995
20
463.3677687
10
642.44227379999995
20
460.47030769999998
10
635.29969570000003
20
460.47030769999998
10
635.29969570000003
20
445.98300300000005
42
0.044137141540264213
10
635.40800693724964
20
444.6644949552749
42
0.070976479963801853
10
635.8208753810195
20
443.36828163887424
42
0.066766042634096051
10
636.35535970554417
20
442.56894045013769
42
0.17972837792376412
10
638.48465225545374
20
441.43547470275513
42
0.038698873890380653
10
639.25282069343552
20
441.3785107971068
42
0.036766497457756633
10
641.04662487770793
20
441.50682761236874
42
0.002585989204119558
10
641.16200041143907
20
441.52450692549564
42
0.006769674984355635
10
641.70027329503807
20
441.61685134511202
42
0.0093463348941537541
10
642.17725760191252
20
441.71437871974695
42
0.013054837493461927
10
642.57194448164933
20
441.81339686888839
42
0.0023216547597660181
0
LWPOLYLINE
5
319
100
AcDbEntity
8
0
100
AcDbPolyline
90
33
70
1
43
0.0
10
658.86121920000005
20
441.8277296
10
658.86121920330447
20
438.9751904930111
42
-0.031933201867300934
10
658.42625785598989
20
438.80256597938944
42
-0.021003013746318615
10
657.90195533730002
20
438.65505925528203
42
-0.014690065604186059
10
657.29823033963032
20
438.53014084192813
42
-0.0040493643891806536
10
657.07557463900525
20
438.49228041936351
42
-0.016442205169139155
10
656.02189562328431
20
438.35524450880769
42
-0.020314443360850688
10
655.07934590619595
20
438.30220431283698
42
-0.0033050227974722379
10
654.95301600402058
20
438.30136243792396
42
-0.074753591324204866
10
652.08316793847473
20
438.68759489545454
42
-0.28436446707249396
10
648.10310586695186
20
443.08785983487985
42
-0.058940985600462716
10
647.81043790000001
20
445.82577649999996
10
647.81043790000001
20
460.47030769999998
10
644.28407070000003
20
460.47030769999998
10
644.28407070000003
20
462.26718269999998
10
647.81043790000001
20
463.81698739999996
10
649.38270350000016
20
469.07284680000004
10
651.53895350000016
20
469.07284680000004
10
651.53895350000016
20
463.3677687
10
658.68153170000016
20
463.3677687
10
658.68153170000016
20
460.47030769999998
10
651.53895350000016
20
460.47030769999998
10
651.53895350000016
20
445.98300300000005
42
0.044137141540264054
10
651.64726473724954
20
444.6644949552749
42
0.070976479963804559
10
652.06013318101964
20
443.36828163887424
42
0.066766042634086434
10
652.59461750554408
20
442.56894045013769
42
0.17972837792377458
10
654.72391005545376
20
441.43547470275513
42
0.038698873890373617
10
655.49207849343543
20
441.3785107971068
42
0.036766497457756633
10
657.28588267770783
20
441.50682761236874
42
0.002585989204119558
10
657.40125821143909
20
441.52450692549564
42
0.0067696749843576846
10
657.93953109503832
20
441.61685134511202
42
0.009346334894144841
10
658.41651540191242
20
441.71437871974695
42
0.013054837493470438
10
658.81120228164946
20
441.81339686888839
42
0.002321659043525087
0
LWPOLYLINE
5
320
100
AcDbEntity
8
0
100
AcDbPolyline
90
21
70
1
43
0.0
10
684.68601235333654
20
447.335103102674
42
0.048952199782055165
10
685.02821135174611
20
451.08163582571586
42
0.0067636672212892249
10
685.02028757110406
20
451.67357288266237
42
0.05569984906038488
10
684.52108066111794
20
455.46345065045216
42
0.1208756626495727
10
681.98475424207584
20
460.38046392193689
42
0.14084707780870936
10
677.45344029854948
20
463.30305069715371
42
0.074518821950271028
10
673.77528162028864
20
463.81698743392235
42
0.045162026720551175
10
671.17416691781727
20
463.59379623652285
42
0.17096606553498647
10
665.41981279976778
20
460.4590773751072
42
0.052638739286883063
10
664.15468112919484
20
458.70477744845579
42
0.082032197034760335
10
662.74971126137257
20
454.8256338478663
42
0.048662263416837263
10
662.41004709480785
20
451.08163587640894
42
0.040683430431677436
10
662.64431810041833
20
448.06036965760023
42
0.071711137543928147
10
663.80262530620735
20
444.29843267362861
42
0.012174616679945184
10
664.07399921629644
20
443.7670034648051
42
0.13556562183273624
10
667.75575032679956
20
439.85116703553365
42
0.063051704444972712
10
670.13880563760995
20
438.79151760583574
42
0.073762486601011659
10
673.61805514455295
20
438.301362610838
42
0.043892803001711951
10
676.14631433534316
20
438.51263572959397
42
0.17228964120008899
10
681.99598474483173
20
441.68173356502456
42
0.050713086114338203
10
683.23444337786259
20
443.38321970109962
42
0.083800746586016522
0
LWPOLYLINE
5
321
100
AcDbEntity
8
0
100
AcDbPolyline
90
20
70
1
43
0.0
10
666.27332852530913
20
451.0816358390623
42
0.035838723330801535
10
666.45300112066934
20
448.38438356050779
42
0.053868171990402558
10
667.06775999598608
20
445.9059732490382
42
0.073560727729913247
10
668.16004727758252
20
443.89413587914879
42
0.19623276426058348
10
672.14002967500778
20
441.55025536022254
42
0.042543499823895527
10
673.70789885404292
20
441.42343272583503
42
0.06675922327407105
10
675.99268830465462
20
441.70748647308722
42
0.16764383130435775
10
679.26698084512793
20
443.88290540836266
42
0.085862639828448994
10
680.51332087738399
20
446.31052021723548
42
0.049748785958409841
10
681.04020792544384
20
448.80165471797477
42
0.029090220710845355
10
681.16493024905071
20
451.08163585103006
42
0.035749567550882544
10
680.98873488999982
20
453.73268933306809
42
0.053830014929034317
10
680.38393171452651
20
456.17539662025433
42
0.076109110010467246
10
679.26698083383349
20
458.2129834478402
42
0.18733846714766514
10
675.45373157741949
20
460.48801374641448
42
0.047911589460329425
10
673.66297700686903
20
460.64999523632019
42
0.062914276623130858
10
671.45382091191266
20
460.39123919216337
42
0.17112790058256933
10
668.13758632763324
20
458.24667489595214
42
0.085169410833146428
10
666.93922840180335
20
455.93097444449478
42
0.048480220723302866
10
666.4196443515732
20
453.56454147259973
42
0.031591252409750935
0
LWPOLYLINE
5
322
100
AcDbEntity
8
0
100
AcDbPolyline
90
55
70
1
43
0.0
10
726.67078950000007
20
438.75058120000006
10
722.94227379999995
20
438.75058120000006
10
722.94227379999995
20
454.76522960000005
42
0.036896999000876889
10
722.83141678111281
20
456.38260631394519
42
0.0559459354344852
10
722.44863505615751
20
457.87444726915402
42
0.084476103221676924
10
721.68446140146796
20
459.17880393283474
42
0.1411568827976955
10
719.86060965649108
20
460.35825326335731
42
0.059486528150669737
10
718.4183058940597
20
460.62691810051956
42
0.018563985338856195
10
717.77625823561903
20
460.64999541262722
42
0.051244195619387145
10
715.82364958800531
20
460.4644168377942
42
0.090922756390442117
10
713.78826779733856
20
459.66702029547082
42
0.078388610332144462
10
712.63270371566023
20
458.65097166782311
42
0.088339102613072581
10
711.58779834312577
20
456.76021709558586
42
0.050894379927704445
10
711.11540210420662
20
454.76180700085138
42
0.034070239979628152
10
710.97062947959603
20
452.53495703291469
42
0.00046552353978155156
10
710.97059420000005
20
452.49667490000002
10
710.97059420000005
20
438.75058120000006
10
707.24207850000016
20
438.75058120000006
10
707.24207850000016
20
454.76522960000005
42
0.036896999000877076
10
707.13122148111268
20
456.38260631394519
42
0.055945935434484569
10
706.74843975615761
20
457.87444726915402
42
0.084476103221674037
10
705.98426610146817
20
459.17880393283474
42
0.13982130104178891
10
704.18533470721275
20
460.34792683395335
42
0.059393770076962275
10
702.74710732907101
20
460.62337267339188
42
0.019880032076608295
10
702.05360194455852
20
460.64999512346606
42
0.05208351587511436
10
700.13845337218538
20
460.46490341717055
42
0.095896804187145621
10
698.07643867667366
20
459.62718279847218
42
0.0813370490648848
10
696.92127766070882
20
458.54989767131093
42
0.080082208858175921
10
695.99416066039907
20
456.78891849240193
42
0.045512278535590374
10
695.51475590971324
20
454.8319444895933
42
0.030753570514887661
10
695.3071649709093
20
452.53885590894367
42
0.0084113373572448046
10
695.29285979999997
20
451.66562020000003
10
695.29285979999997
20
438.75058120000006
10
691.56434420000005
20
438.75058120000006
10
691.56434420000005
20
463.3677687
10
694.59657070000003
20
463.3677687
10
695.20301600000016
20
459.99862800000011
10
695.38270349036679
20
459.99862800566495
42
-0.14241640755911678
10
698.35877771654077
20
462.80624521932202
42
-0.10366138640884053
10
701.85522900561421
20
463.78712904009666
42
-0.01883848741752173
10
702.6600472518918
20
463.81698740679502
42
-0.056758221058561195
10
705.40771676196732
20
463.53082632503799
42
-0.11085449321344006
10
708.2765929268827
20
462.21456763236279
42
-0.12849000590332277
10
710.20692229999997
20
459.63925300000005
10
710.3866098316671
20
459.6392529818516
42
-0.13511066718176556
10
713.3188149567917
20
462.55040117858096
42
-0.0078746663713884588
10
713.57606288159047
20
462.69394055098917
42
-0.096754971389489033
10
717.03785488181768
20
463.74679694064866
42
-0.02767953450864985
10
718.33778163480997
20
463.81698750520178
42
-0.045603262616708148
10
720.6886270937066
20
463.61785568450182
42
-0.075164920092911106
10
723.01574287665858
20
462.8423476005413
42
-0.080431383765647929
10
724.59315269232366
20
461.67196790130339
42
-0.10402316497447331
10
725.97168422060406
20
459.4169938710013
42
-0.054422158378210267
10
726.51717750548187
20
457.18510845752655
42
-0.034833341107132883
10
726.67078950000007
20
454.81015149999996
0
LWPOLYLINE
5
323
100
AcDbEntity
8
0
100
AcDbPolyline
90
12
70
1
43
0.0
10
87
20
0
10
87
20
-34
10
65
20
-34
10
65
20
-37.000000000000007
10
25
20
-37.000000000000007
10
25
20
-34.000000000000007
10
1.8488927466117464e-31
20
-34
10
0
20
0
10
25
20
0
10
25
20
3.0000000000000004
10
65
20
3.0000000000000004
10
65
20
0
0
LWPOLYLINE
5
324
100
AcDbEntity
8
0
100
AcDbPolyline
90
12
70
1
43
0.0
10
151.5
20
3.9491530653994777e-16
10
151.5
20
-34
10
140
20
-34
10
140
20
-37
10
100
20
-37
10
100
20
-34
10
91.5
20
-34
10
91.5
20
3.9491530653994481e-16
10
100
20
3.9491530653994486e-16
10
100
20
3.0000000000000004
10
140
20
3.0000000000000004
10
140
20
3.9491530653994748e-16
0
LINE
5
325
100
AcDbEntity
8
0
100
AcDbLine
10
547.5000039935112
20
93.000000044703484
30
0
11
547.5000039935112
21
96.000000044703484
31
0
0
LINE
5
326
100
AcDbEntity
8
0
100
AcDbLine
10
547.5000039935112
20
96.000000044703484
30
0
11
567.5000039935112
21
96.000000044703484
31
0
0
LINE
5
327
100
AcDbEntity
8
0
100
AcDbLine
10
587.5000039935112
20
93.000000044703484
30
0
11
587.5000039935112
21
96.000000044703484
31
0
0
LINE
5
328
100
AcDbEntity
8
0
100
AcDbLine
10
587.5000039935112
20
96.000000044703484
30
0
11
567.5000039935112
21
96.000000044703484
31
0
0
LINE
5
329
100
AcDbEntity
8
0
100
AcDbLine
10
596.0000079870224
20
93.000000044703484
30
0
11
587.5000039935112
21
93.000000044703484
31
0
0
LINE
5
330
100
AcDbEntity
8
0
100
AcDbLine
10
547.5000039935112
20
93.000000044703484
30
0
11
539
21
93.000000044703484
31
0
0
LINE
5
331
100
AcDbEntity
8
0
100
AcDbLine
10
547.5000039935112
20
396.00000455975533
30
0
11
547.5000039935112
21
399.00000455975533
31
0
0
LINE
5
332
100
AcDbEntity
8
0
100
AcDbLine
10
547.5000039935112
20
399.00000455975533
30
0
11
567.5000039935112
21
399.00000455975533
31
0
0
LINE
5
333
100
AcDbEntity
8
0
100
AcDbLine
10
587.5000039935112
20
396.00000455975533
30
0
11
587.5000039935112
21
399.00000455975533
31
0
0
LINE
5
334
100
AcDbEntity
8
0
100
AcDbLine
10
587.5000039935112
20
399.00000455975533
30
0
11
567.5000039935112
21
399.00000455975533
31
0
0
LINE
5
335
100
AcDbEntity
8
0
100
AcDbLine
10
596.0000079870224
20
396.00000455975533
30
0
11
587.5000039935112
21
396.00000455975533
31
0
0
LINE
5
336
100
AcDbEntity
8
0
100
AcDbLine
10
547.5000039935112
20
396.00000455975533
30
0
11
539
21
396.00000455975533
31
0
0
LINE
5
337
100
AcDbEntity
8
0
100
AcDbLine
10
596.0000079870224
20
309
30
0
11
599.0000079870224
21
309
31
0
0
LINE
5
338
100
AcDbEntity
8
0
100
AcDbLine
10
599.0000079870224
20
331
30
0
11
596.0000079870224
21
331
31
0
0
LWPOLYLINE
5
339
100
AcDbEntity
8
0
100
AcDbPolyline
90
2
70
1
43
0.0
10
596.0000079870224
20
331
10
596.0000079870224
20
309
0
LINE
5
340
100
AcDbEntity
8
0
100
AcDbLine
10
596.0000079870224
20
331
30
0
11
599.0000079870224
21
331
31
0
0
LINE
5
341
100
AcDbEntity
8
0
100
AcDbLine
10
599.0000079870224
20
331
30
0
11
599.0000079870224
21
371
31
0
0
LINE
5
342
100
AcDbEntity
8
0
100
AcDbLine
10
599.0000079870224
20
371
30
0
11
596.0000079870224
21
371
31
0
0
LINE
5
343
100
AcDbEntity
8
0
100
AcDbLine
10
596.0000079870224
20
371
30
0
11
596.0000079870224
21
396.00000455975533
31
0
0
LINE
5
344
100
AcDbEntity
8
0
100
AcDbLine
10
596.0000079870224
20
6.0000000000000009
30
0
11
599.0000079870224
21
6.0000000000000009
31
0
0
LINE
5
345
100
AcDbEntity
8
0
100
AcDbLine
10
599.0000079870224
20
28.000000000000004
30
0
11
596.0000079870224
21
28.000000000000004
31
0
0
LWPOLYLINE
5
346
100
AcDbEntity
8
0
100
AcDbPolyline
90
2
70
1
43
0.0
10
596.0000079870224
20
28.000000000000004
10
596.0000079870224
20
6.0000000000000009
0
LINE
5
347
100
AcDbEntity
8
0
100
AcDbLine
10
596.0000079870224
20
28.000000000000004
30
0
11
599.0000079870224
21
28.000000000000004
31
0
0
LINE
5
348
100
AcDbEntity
8
0
100
AcDbLine
10
599.0000079870224
20
28.000000000000004
30
0
11
599.0000079870224
21
68
31
0
0
LINE
5
349
100
AcDbEntity
8
0
100
AcDbLine
10
599.0000079870224
20
68
30
0
11
596.0000079870224
21
68
31
0
0
LINE
5
350
100
AcDbEntity
8
0
100
AcDbLine
10
596.0000079870224
20
68
30
0
11
596.0000079870224
21
93.000000044703484
31
0
0
LWPOLYLINE
5
351
100
AcDbEntity
8
0
100
AcDbPolyline
90
4
70
1
43
0.0
10
82.838188754642715
20
-5.1785849747943313
10
62.838188456619484
20
-5.1785849747943313
10
62.838188456619484
20
-8.1785850194978149
10
82.838188754642715
20
-8.1785850194978149
0
LWPOLYLINE
5
352
100
AcDbEntity
8
0
100
AcDbPolyline
90
4
70
1
43
0.0
10
52.838188307607872
20
-15.178585123805943
10
32.838188009584648
20
-15.178585123805943
10
32.838188009584648
20
-18.178585168509429
10
52.838188307607872
20
-18.178585168509429
0
LWPOLYLINE
5
353
100
AcDbEntity
8
0
100
AcDbPolyline
90
4
70
1
43
0.0
10
22.838188009584648
20
-25.178585272817557
10
2
20
-25.178585272817557
10
2
20
-28.178585317521041
10
22.838188009584648
20
-28.178585317521041
0
LWPOLYLINE
5
354
100
AcDbEntity
8
0
100
AcDbPolyline
90
8
70
1
43
0.0
10
90
20
-70
10
30
20
-70
10
30
20
-100
10
90
20
-100
10
90.000001341104507
20
-95.000001415610313
10
95.000001341104507
20
-95.000001415610313
10
95.000001341104507
20
-75.00000111758709
10
90.000001341104507
20
-75.00000111758709
0
LWPOLYLINE
5
355
100
AcDbEntity
8
0
100
AcDbPolyline
90
8
70
1
43
0.0
10
95.000001341104507
20
-95.000001415610313
10
90.000001341104507
20
-95.000001415610313
10
90
20
-100
10
30
20
-100
10
30
20
-70
10
90
20
-70
10
90.000001341104507
20
-75.00000111758709
10
95.000001341104507
20
-75.00000111758709
0
LWPOLYLINE
5
356
100
AcDbEntity
8
0
100
AcDbPolyline
90
8
70
1
43
0.0
10
180.00000134110451
20
-75.00000111758709
10
180.00000134110451
20
-95.000001415610313
10
175.00000134110451
20
-95.000001415610313
10
175
20
-100
10
115
20
-100
10
115
20
-70
10
175
20
-70
10
175.00000134110451
20
-75.00000111758709
0
LWPOLYLINE
5
357
100
AcDbEntity
8
0
100
AcDbPolyline
90
8
70
1
43
0.0
10
115
20
-70
10
115
20
-100
10
175
20
-100
10
175.00000134110451
20
-95.000001415610313
10
180.00000134110451
20
-95.000001415610313
10
180.00000134110451
20
-75.00000111758709
10
175.00000134110451
20
-75.00000111758709
10
175
20
-70
0
LWPOLYLINE
5
358
100
AcDbEntity
8
0
100
AcDbPolyline
90
8
70
1
43
0.0
10
245
20
-70
10
185
20
-70
10
185
20
-100
10
245
20
-100
10
245.00000134110451
20
-95.000001415610313
10
250.00000134110451
20
-95.000001415610313
10
250.00000134110451
20
-75.00000111758709
10
245.00000134110451
20
-75.00000111758709
0
LWPOLYLINE
5
359
100
AcDbEntity
8
0
100
AcDbPolyline
90
8
70
1
43
0.0
10
250.00000134110451
20
-75.00000111758709
10
250.00000134110451
20
-95.000001415610313
10
245.00000134110451
20
-95.000001415610313
10
245
20
-100
10
185
20
-100
10
185
20
-70
10
245
20
-70
10
245.00000134110451
20
-75.00000111758709
0
LWPOLYLINE
5
360
100
AcDbEntity
8
0
100
AcDbPolyline
90
12
70
1
43
0.0
10
749.00001105666161
20
380
10
746.00001105666161
20
380
10
746.00001105666161
20
376
10
742.00001105666161
20
376
10
742.00001105666161
20
373.00000000000006
10
746.00001105666161
20
373.00000000000006
10
746.00001105666161
20
369.00000000000006
10
749.00001105666161
20
369.00000000000006
10
749.00001105666161
20
373.00000000000006
10
753.00001105666172
20
373.00000000000006
10
753.00001105666172
20
376
10
749.00001105666161
20
376
0
LWPOLYLINE
5
361
100
AcDbEntity
8
0
100
AcDbPolyline
90
12
70
1
43
0.0
10
751.0000112503767
20
345
10
748.0000112503767
20
345
10
748.0000112503767
20
341
10
744.00001125037659
20
341
10
744.00001125037659
20
338.00000000000006
10
748.0000112503767
20
338.00000000000006
10
748.0000112503767
20
334.00000000000006
10
751.0000112503767
20
334.00000000000006
10
751.0000112503767
20
338.00000000000006
10
755.0000112503767
20
338.00000000000006
10
755.0000112503767
20
341
10
751.0000112503767
20
341
0
ENDSEC
0
SECTION
2
OBJECTS
0
DICTIONARY
5
C
100
AcDbDictionary
3
ACAD_GROUP
350
D
3
ACAD_MLINESTYLE
350
17
0
DICTIONARY
5
D
100
AcDbDictionary
0
DICTIONARY
5
1A
330
C
100
AcDbDictionary
0
DICTIONARY
5
17
100
AcDbDictionary
0
ENDSEC
0
EOF
